<svg width="24" height="24" viewBox="0 0 24 24" fill="none" xmlns="http://www.w3.org/2000/svg">
<path d="M10.5703 4.95C8.61088 5.47031 6.67026 5.99062 6.26245 6.09844C5.71401 6.24375 5.54057 6.30937 5.6062 6.3375C5.65307 6.35625 7.49057 6.84844 9.67963 7.42969C11.8734 8.01094 13.7812 8.51719 13.9218 8.55937L14.1796 8.625L17.9718 7.61719C20.0578 7.06406 21.7828 6.60937 21.8015 6.60937C21.8249 6.60937 21.8437 7.27969 21.8437 8.09531V9.58594L21.539 9.75L21.2343 9.91406V11.1891C21.2343 12.0516 21.2484 12.4688 21.2812 12.4688C21.3093 12.4688 21.5437 12.3094 21.7968 12.1172L22.2656 11.7609L22.7343 12.1172C22.9874 12.3094 23.2124 12.4688 23.2265 12.4688C23.2406 12.4688 23.2499 11.8922 23.2499 11.1844V9.9L22.9453 9.72656L22.6406 9.55781V7.98281C22.6406 6.55781 22.6499 6.40312 22.7203 6.35156C22.7906 6.3 22.7671 6.28125 22.5421 6.22031C22.2468 6.13594 14.3062 4.03125 14.2031 4.0125C14.1656 4.00312 12.5296 4.425 10.5703 4.95Z" fill="white"/>
<path d="M8.25 9.77344C8.25 10.8703 8.26406 11.7656 8.2875 11.7656C8.30625 11.7656 9.25781 11.9437 10.4063 12.1594C12.9281 12.6375 13.3734 12.7031 14.1563 12.7031C14.9672 12.7031 15.4641 12.6328 17.9203 12.1641C19.0781 11.9437 20.0297 11.7656 20.0391 11.7656C20.0531 11.7656 20.0625 10.8656 20.0625 9.76875C20.0625 7.89375 20.0578 7.77656 19.9828 7.8C19.6922 7.88906 14.2313 9.32812 14.175 9.32812C14.1422 9.32812 12.8016 8.98125 11.1984 8.55469C9.6 8.12812 8.28281 7.78125 8.26875 7.78125C8.25938 7.78125 8.25 8.67656 8.25 9.77344Z" fill="white"/>
<path d="M2.55937 11.4844C2.5828 11.5078 3.80624 12.375 5.27343 13.4062L7.9453 15.2812H14.8734C19.3922 15.2812 21.8016 15.2672 21.7875 15.2344C21.7828 15.2109 20.9531 14.6625 19.95 14.0156L18.1312 12.8437L17.2547 13.0078C15.5203 13.3312 15.2672 13.3641 14.4516 13.3922C13.5891 13.4203 13.1672 13.3828 12.0937 13.1906C10.9312 12.9797 7.71093 12.3703 7.63124 12.3469C7.55624 12.3234 7.54687 12.2625 7.54687 11.8781V11.4375H5.02968C3.39843 11.4375 2.52655 11.4516 2.55937 11.4844Z" fill="white"/>
<path d="M1.13906 11.6942C0.76875 12.0083 0.75 12.0974 0.75 13.4567C0.75 14.5302 0.759375 14.6614 0.839062 14.788C0.890625 14.8724 1.96875 15.6786 3.64687 16.888C5.14219 17.9614 6.40312 18.8567 6.44062 18.8708C6.50156 18.8942 6.51094 18.7489 6.525 17.7786L6.53906 16.663L6.68437 16.3536C6.76406 16.1849 6.91875 15.9552 7.02656 15.8427C7.18125 15.6786 7.20937 15.627 7.1625 15.5802C7.04531 15.4724 1.41094 11.5302 1.36875 11.5302C1.35 11.5302 1.24219 11.6052 1.13906 11.6942Z" fill="white"/>
<path d="M7.84688 16.0967C7.575 16.2232 7.35 16.4717 7.27031 16.7295C7.2375 16.842 7.21875 17.3248 7.21875 18.0279C7.21875 19.2889 7.24219 19.3873 7.59375 19.7061C7.95938 20.0342 7.45781 20.0154 15.6188 20.0154H22.9688V19.4764V18.9373H16.9406C13.1016 18.9373 10.8844 18.9186 10.8281 18.8904C10.7016 18.8248 10.6359 18.5998 10.7063 18.4639C10.8234 18.2248 10.5891 18.2342 16.9828 18.2342H22.9688V17.9764V17.7186H18.3797H13.7859L13.6688 17.6107C13.4953 17.4561 13.4859 17.2592 13.65 17.1092C13.7531 17.0154 13.7859 17.0154 18.3609 17.0154H22.9688V16.4998V15.9842H15.5297H8.08594L7.84688 16.0967Z" fill="white"/>
</svg>
