<svg width="24" height="24" viewBox="0 0 24 24" fill="none" xmlns="http://www.w3.org/2000/svg">
<g clip-path="url(#clip0_5652_50002)">
<path d="M6.16408 0.0893653C6.08908 0.13624 5.98595 0.215928 5.93908 0.26749C5.89689 0.319053 5.60626 1.00812 5.29689 1.79562C4.79064 3.09405 4.73439 3.2628 4.73439 3.5253C4.73439 3.89093 4.8422 4.13937 5.10001 4.36905C5.26407 4.51437 5.41876 4.58468 6.12658 4.80499C6.58595 4.9503 7.07345 5.10499 7.20939 5.14718L7.46251 5.23155L6.96564 5.59718C6.36564 6.04718 5.57345 6.84874 5.14689 7.45343C4.12501 8.89249 3.60939 10.5331 3.60939 12.3284C3.60939 13.7206 3.88126 14.8925 4.48126 16.0972C4.91251 16.9597 5.32501 17.5316 6.03751 18.2534C7.21408 19.4441 8.6297 20.2128 10.3406 20.5784C10.9359 20.7097 12.3891 20.7566 13.0594 20.6722C14.4938 20.4941 15.9141 19.9175 17.0578 19.055C17.5219 18.7034 18.2766 17.9675 18.6 17.555C19.4016 16.5284 19.9828 15.2722 20.2547 13.9691C20.4 13.2753 20.4328 11.9066 20.325 11.1566C20.1281 9.80186 19.6313 8.55499 18.8578 7.45343C18.4547 6.88155 17.4516 5.88311 16.875 5.4753C14.8594 4.0503 12.2672 3.58155 9.87189 4.2003C9.18283 4.37843 9.18751 4.37843 9.18751 4.30343C9.18751 4.27062 9.12658 4.16749 9.05626 4.07843C8.93908 3.94249 8.82658 3.88624 8.17501 3.6753L7.4297 3.43155L7.75783 3.28155C8.72814 2.83624 9.75001 2.54093 10.7813 2.41437C11.5969 2.30655 12.8953 2.33937 13.6875 2.47999C15.7969 2.85499 17.5922 3.79718 19.1016 5.32061C20.5781 6.80655 21.4735 8.5503 21.8672 10.7112C21.9703 11.2691 22.0125 12.7831 21.9422 13.3878C21.675 15.7175 20.6953 17.7566 19.0594 19.3878C18.2016 20.2409 17.4328 20.7941 16.3828 21.3097C14.9531 22.0081 13.6219 22.3128 12 22.3128C10.3781 22.3128 9.04689 22.0081 7.6172 21.3097C6.55314 20.7894 5.79376 20.2409 4.9172 19.3644C3.32345 17.7659 2.33907 15.7316 2.06251 13.4534C2.00157 12.9425 2.00157 11.7144 2.06251 11.2034C2.18907 10.1628 2.46564 9.18311 2.90157 8.20343C3.24845 7.4253 3.2297 7.06905 2.82657 6.76436C2.67657 6.64718 2.61564 6.63311 2.31564 6.63311C1.82345 6.63311 1.69689 6.74561 1.3547 7.49561C0.909387 8.46593 0.581262 9.59561 0.412512 10.7112C0.318762 11.3675 0.328137 13.43 0.43595 14.1097C0.628137 15.3237 0.965637 16.3784 1.52345 17.5081C2.6672 19.8284 4.50939 21.6706 6.82033 22.805C7.94533 23.3581 8.99532 23.6956 10.1719 23.8831C10.9219 24.005 12.6141 24.0284 13.4063 23.9347C16.05 23.6112 18.4547 22.4347 20.3063 20.5503C21.2578 19.5847 21.9047 18.6753 22.4766 17.5081C23.2922 15.8347 23.6156 14.4987 23.6578 12.6097C23.686 11.5269 23.625 10.8003 23.4328 9.87218C22.7063 6.37999 20.2594 3.3003 16.9781 1.74874C16.0219 1.29874 14.8359 0.937803 13.7109 0.764365C12.9656 0.647178 11.0156 0.647178 10.275 0.764365C9.30001 0.919053 8.17501 1.2378 7.4297 1.57062C7.28908 1.63155 7.17189 1.67843 7.17189 1.66905C7.17189 1.66437 7.22814 1.52374 7.29376 1.35499C7.53283 0.77374 7.41564 0.295615 6.97501 0.0659278C6.78751 -0.0325097 6.33751 -0.0184472 6.16408 0.0893653ZM9.1922 4.78155C9.13595 5.0253 9.03283 5.18468 8.84533 5.29718C8.59689 5.45186 8.41876 5.46124 8.00626 5.33936C7.66408 5.24561 7.63595 5.22686 7.71564 5.16593C7.8422 5.07218 8.60626 4.6878 8.90626 4.57062C9.21095 4.44874 9.25783 4.48624 9.1922 4.78155ZM11.025 6.7503C11.2172 6.80655 11.4516 6.98468 11.5453 7.14405C11.5875 7.21436 11.6063 7.88468 11.625 9.72686C11.6531 12.4878 11.6344 12.3612 11.9672 12.5628C12.1078 12.6519 12.2156 12.6566 13.7109 12.6566C14.6906 12.6566 15.375 12.6753 15.4828 12.7081C16.0594 12.8675 16.2797 13.5284 15.9047 13.9691C15.6469 14.2784 15.6703 14.2737 13.7578 14.2737C12.0938 14.2737 12.0094 14.2691 11.6906 14.1706C10.8328 13.8987 10.2047 13.1675 10.0781 12.2956C10.0125 11.8409 10.0172 7.59874 10.0828 7.33624C10.1484 7.08311 10.3781 6.84405 10.6266 6.76436C10.8563 6.69405 10.8234 6.69405 11.025 6.7503Z" fill="white"/>
</g>
<defs>
<clipPath id="clip0_5652_50002">
<rect width="24" height="24" fill="white"/>
</clipPath>
</defs>
</svg>
