<svg width="20" height="20" viewBox="0 0 20 20" fill="none" xmlns="http://www.w3.org/2000/svg">
<g clip-path="url(#clip0_5608_21159)">
<path d="M4.96094 0.0859375C4.85937 0.140625 4.75391 0.230469 4.70703 0.3125C4.62891 0.449219 4.62891 0.5 4.61719 8.20312L4.60938 15.957L4.69531 16.1328C4.74609 16.2266 4.83594 16.3398 4.89453 16.3828C5.00391 16.4609 5.05859 16.4648 7.03906 16.4766L9.07031 16.4883L9.04687 16.3789C8.92969 15.8203 8.89844 15.457 8.91797 14.8281C8.94531 13.9297 9.10156 13.2695 9.47266 12.4805C10.3477 10.6055 12.0547 9.30078 14.0586 8.96484C14.6484 8.86328 15.7539 8.89844 16.3281 9.03516C16.8398 9.15625 17.3516 9.33984 17.7422 9.53516C17.9102 9.62109 18.0547 9.6875 18.0664 9.6875C18.0781 9.6875 18.082 7.59766 18.0781 5.04297C18.0664 0.417969 18.0664 0.394531 17.9844 0.289062C17.9414 0.230469 17.8555 0.144531 17.7969 0.101562C17.6914 0.0195312 17.6836 0.0195312 11.4141 0.0078125L5.13672 0L4.96094 0.0859375ZM15.3789 2.02734C15.7812 2.21094 15.8047 2.77344 15.418 3.00781C15.2969 3.08203 15.1914 3.08594 11.375 3.08594C7.8125 3.08594 7.44141 3.07812 7.31641 3.02344C6.88672 2.81641 6.94141 2.12891 7.40234 1.99609C7.46484 1.97656 9.25 1.95703 11.3672 1.95703C15.0703 1.95312 15.2227 1.95703 15.3789 2.02734ZM15.3906 4.38281C15.7812 4.58594 15.8047 5.09375 15.4336 5.33984L15.3008 5.42969H11.3789C7.03906 5.42969 7.27344 5.44531 7.11328 5.17969C6.91797 4.86719 7.0625 4.4375 7.39844 4.33984C7.46484 4.32031 9.17969 4.30078 11.3672 4.30078L15.2187 4.29688L15.3906 4.38281ZM15.3906 6.72656C15.8008 6.94141 15.8008 7.49609 15.3867 7.70312C15.2617 7.76953 14.9883 7.77344 11.3555 7.77344C7.03906 7.77344 7.27344 7.78906 7.11328 7.52344C6.92578 7.21875 7.03906 6.83594 7.36328 6.69531C7.45703 6.65234 8.22266 6.64453 11.3477 6.64062H15.2187L15.3906 6.72656ZM9.67969 9.0625C10.0937 9.25 10.082 9.88672 9.66406 10.0625C9.47266 10.1406 7.50391 10.1406 7.35156 10.0625C6.89453 9.82422 6.91406 9.21484 7.38281 9.02734C7.4375 9.00781 7.91797 8.98828 8.49609 8.98828C9.42187 8.98438 9.52734 8.99219 9.67969 9.0625Z" fill="#232735" fill-opacity="0.25"/>
<path d="M1.43359 1.95312C0.917969 2.04297 0.410156 2.42969 0.164063 2.92578C0.0234375 3.21094 0.0195313 3.23438 0.00390625 3.71875L-0.0078125 4.21875H1.75781H3.52344L3.50781 3.71875C3.49219 3.26562 3.48438 3.19922 3.375 2.96875C3.12891 2.44141 2.60938 2.04297 2.05078 1.95312C1.78516 1.91016 1.69922 1.91016 1.43359 1.95312Z" fill="#232735"/>
<path d="M0 8.96484V12.5781H1.75781H3.51562V8.96484V5.35156H1.75781H0V8.96484Z" fill="#232735"/>
<path d="M14.1256 10.1016C12.0709 10.4727 10.4459 12.1328 10.0983 14.2188C10.0123 14.7227 10.0358 15.5 10.1568 16.0625C10.5318 17.8398 11.6998 19.168 13.3795 19.7227C13.9303 19.9062 14.3912 19.9727 15.0592 19.9727C16.4693 19.9688 17.6959 19.4648 18.6139 18.5078C19.3248 17.7734 19.7389 16.9375 19.9225 15.8672C20.2076 14.2266 19.7154 12.6484 18.5514 11.4883C17.8209 10.7578 16.8951 10.2773 15.8717 10.0977C15.4537 10.0234 14.5436 10.0273 14.1256 10.1016ZM17.0943 13.1094C17.3522 13.2344 17.485 13.5625 17.3756 13.8125C17.3483 13.8789 16.8014 14.6055 16.1568 15.4219C15.1022 16.7695 14.9733 16.918 14.8209 16.9766C14.6764 17.0312 14.6334 17.0352 14.485 16.9883C14.3404 16.9414 14.2311 16.832 13.6412 16.1523C13.2662 15.7227 12.9459 15.332 12.9264 15.2812C12.8131 14.9883 12.9498 14.6797 13.2506 14.5547C13.4264 14.4805 13.4381 14.4805 13.6139 14.5469C13.7584 14.6055 13.8678 14.7031 14.1842 15.0742C14.4029 15.3242 14.5943 15.5273 14.6139 15.5273C14.6334 15.5273 15.0631 15 15.5709 14.3555C16.1568 13.6094 16.5358 13.1602 16.6139 13.1172C16.774 13.0312 16.9264 13.0312 17.0943 13.1094Z" fill="#232735"/>
<path d="M0.195312 13.749C0.195312 13.8467 1.23438 16.2725 1.32031 16.3701C1.43359 16.5069 1.67188 16.5772 1.88672 16.5381C2.17578 16.4912 2.24219 16.3819 2.80469 15.0303C3.08984 14.3467 3.32031 13.7725 3.32031 13.749C3.32031 13.7217 2.78125 13.71 1.75781 13.71C0.734375 13.71 0.195312 13.7217 0.195312 13.749Z" fill="#232735"/>
</g>
<defs>
<clipPath id="clip0_5608_21159">
<rect width="20" height="20" fill="white"/>
</clipPath>
</defs>
</svg>
