<svg class="svg-icon" style="width: 1em; height: 1em;vertical-align: middle;fill: currentColor;overflow: hidden;" viewBox="0 0 1024 1024" version="1.1" xmlns="http://www.w3.org/2000/svg"><path d="M842.592075 67.789277h-103.116084c-2.864336 0-6.206061 0.477389-9.070397 0.954779H113.141259C50.125874 67.789277 0 125.55338 0 199.071329v693.16923c0 73.517949 49.648485 130.804662 112.663869 130.804662h729.450816c63.015385 0 112.663869-57.286713 112.66387-130.804662V199.071329c0.954779-73.517949-49.171096-131.282051-112.18648-131.282052z m6.20606 867.416317c-1.909557 1.909557-5.251282 2.864336-8.115618 2.864336h-284.524009c-2.864336 0-6.206061-0.954779-8.115618-2.864336-1.909557-1.909557-2.864336-4.296503-2.864335-6.683449 0-58.241492 40.578089-111.231702 101.206527-131.282052 6.206061-1.909557 10.502564-7.160839 11.457342-13.3669 0.477389-6.206061-1.909557-11.934732-7.638228-15.276456-26.7338-15.753846-44.397203-43.919814-47.261539-75.427506-0.954779-8.115618-8.115618-14.321678-16.708624-14.321679h-1.432168c1.909557-2.864336 3.341725-6.206061 3.341725-9.547785 0-67.311888 45.351981-114.096037 111.231701-114.096037 65.402331 0 111.231702 46.784149 111.231702 114.096037 0 3.819114 1.432168 7.160839 3.341725 9.547785h-2.386946c-8.593007 0-16.231235 6.206061-16.708625 14.321679-2.864336 31.030303-20.527739 59.19627-47.261539 75.427506-5.728671 3.341725-8.593007 9.070396-7.638228 15.276456 0.477389 6.206061 5.251282 11.457343 11.457343 13.3669 60.628438 19.57296 101.206527 73.040559 101.206526 131.282052-0.954779 2.386946-2.386946 4.773893-3.819114 6.683449z m24.824243-67.311888c-15.753846-38.191142-45.829371-70.653613-84.975292-90.703962 19.095571-17.663403 31.985082-41.532867 37.236364-67.311889 17.186014 0 31.030303-12.88951 31.030303-29.120745 0-10.025175-5.728671-19.095571-14.799068-24.824243-5.251282-78.769231-64.924942-134.146387-144.648951-134.146387-79.724009 0-139.397669 55.854545-144.648951 134.146387-8.593007 5.251282-14.799068 14.321678-14.799067 24.824243 0 15.753846 14.321678 29.120746 31.030303 29.120745 5.728671 25.779021 18.140793 48.693706 37.236363 67.311889-59.19627 30.075524-97.387413 87.362238-97.387412 150.855011 0 5.728671 1.432168 11.934732 4.296503 17.186014H113.141259c-12.88951 0-31.030303-21.005128-31.030303-52.99021V199.071329c0-32.462471 18.140793-52.99021 31.030303-52.99021h619.173893c2.864336 0 6.206061-0.477389 9.070396-0.954779h101.683916c12.88951 0 31.030303 21.005128 31.030303 52.99021v669.777156z" fill="#333333" /><path d="M605.329604 350.40373c0-17.663403-15.276457-32.462471-34.372028-32.462471H211.006061c-19.095571 0-34.372028 14.321678-34.372028 32.462471 0 17.663403 15.276457 32.462471 34.372028 32.46247h359.951515c19.095571 0 34.372028-14.321678 34.372028-32.46247zM413.419114 513.193473H211.006061c-19.095571 0-34.372028 14.321678-34.372028 32.462471s15.276457 32.462471 34.372028 32.462471h202.413053c19.095571 0 34.372028-14.321678 34.372028-32.462471S432.514685 513.193473 413.419114 513.193473zM413.419114 706.058741H211.006061c-19.095571 0-34.372028 14.321678-34.372028 32.462471s15.276457 32.462471 34.372028 32.462471h202.413053c19.095571 0 34.372028-14.321678 34.372028-32.462471s-15.276457-32.462471-34.372028-32.462471zM329.398601 210.051282c-20.527739 0-37.236364-16.708625-37.236363-36.758974V36.758974c0-20.527739 16.708625-36.758974 36.758974-36.758974 20.527739 0 36.758974 16.708625 36.758974 36.758974v136.055944c0.954779 20.527739-15.753846 37.236364-36.281585 37.236364zM625.379953 210.051282c-20.527739 0-37.236364-16.708625-37.236363-36.758974V36.758974c0-20.527739 16.708625-36.758974 36.758974-36.758974 20.527739 0 36.758974 16.708625 36.758974 36.758974v136.055944c0.954779 20.527739-15.753846 37.236364-36.281585 37.236364z" fill="#333333" /></svg>