<svg width="15" height="19" viewBox="0 0 15 19" fill="none" xmlns="http://www.w3.org/2000/svg">
<path d="M8.84375 0.577164C8.32813 0.721695 7.88672 1.08888 7.63281 1.59279C7.48047 1.89357 7.46484 1.95216 7.44531 2.2881C7.42578 2.72169 7.47656 3.01076 7.63672 3.32716C7.87109 3.79982 8.30469 4.1631 8.81641 4.31935C9.18359 4.42873 9.73047 4.40529 10.0742 4.26857L10.3086 4.17091L10.1172 5.60841C10.0078 6.40138 9.91016 7.04201 9.89453 7.0381C9.87891 7.03029 9.57031 6.76076 9.21094 6.44044C8.84766 6.11623 8.51953 5.82326 8.47266 5.78419C8.37109 5.69044 8.39063 5.69826 8.90625 5.98732C9.14453 6.11623 9.35156 6.2256 9.37109 6.2256C9.42188 6.2256 9.35547 5.81544 9.27344 5.62404C9.17578 5.38966 8.91016 5.10841 8.6875 4.99513C8.04688 4.67482 6.88281 4.70607 6.08203 5.07326C5.26172 5.44826 4.60547 6.17873 4.30469 7.04591C4.26563 7.1631 4.08984 7.94435 3.92188 8.78029C3.51953 10.7373 3.51172 11.0303 3.85547 11.7334C4.03516 12.0967 4.48047 12.5381 4.85938 12.7217L5.15234 12.8662H4.34375C3.60938 12.8662 3.53516 12.8584 3.51563 12.7959C3.50781 12.7608 3.23047 11.3662 2.90625 9.70216C2.53516 7.81154 2.28516 6.61232 2.23438 6.50685C2.03906 6.08888 1.47266 5.98341 1.10156 6.29591C0.96875 6.40919 0.839844 6.65919 0.835938 6.81154C0.835938 6.98732 2.19531 13.835 2.25781 13.9483C2.34375 14.1162 2.52734 14.2725 2.69922 14.3233L2.85547 14.3701L2.16016 16.167C1.70703 17.335 1.46484 18.0147 1.46094 18.1123C1.46094 18.4248 1.64063 18.6084 1.94531 18.6084C2.31641 18.6084 2.28516 18.6709 3.16016 16.3858L3.94141 14.3506H5.44922H6.95703L7.39063 15.4795L7.82422 16.6084L7.63281 17.0889C7.52344 17.3545 7.42188 17.6631 7.40625 17.7686C7.33594 18.2022 7.52734 18.6319 7.89063 18.8584C8.12891 19.0069 8.55469 19.0459 8.83203 18.9404C9.03906 18.8584 9.28906 18.6475 9.37891 18.4756C9.41406 18.4092 9.98828 16.9834 10.6523 15.3076L11.8672 12.2608V11.9287C11.8711 11.542 11.8008 11.3662 11.543 11.1358C11.2227 10.8467 11.2656 10.8545 9.59766 10.8662C8.77344 10.874 8.10156 10.8701 8.10156 10.8623C8.10156 10.8545 8.21484 10.4522 8.35547 9.97169C8.49609 9.49123 8.60938 9.07326 8.60938 9.04591C8.60938 9.01857 8.35938 8.62404 8.05859 8.17091C7.64844 7.55763 7.53906 7.37404 7.64063 7.45998C7.71484 7.52248 8.23047 7.9756 8.78516 8.47169L9.78906 9.37013L9.5 9.38966C9.34375 9.40138 9.17578 9.43263 9.12891 9.45998C8.77734 9.65919 8.80469 10.1944 9.17969 10.3506C9.37891 10.4326 14.4609 10.4326 14.625 10.3467C15 10.1553 15 9.63966 14.625 9.44826C14.5313 9.39748 14.2461 9.38966 12.9023 9.38966C11.5273 9.38966 11.3008 9.38185 11.3398 9.33498C11.3672 9.30373 11.4023 9.22169 11.4258 9.14748C11.4805 8.95607 12.0859 4.45216 12.0859 4.24123C12.082 3.79591 11.7578 3.44044 11.3008 3.38576C11.1953 3.37404 11.1094 3.35841 11.1094 3.3506C11.1094 3.34669 11.1484 3.25685 11.1914 3.15138C11.2969 2.9131 11.3359 2.30373 11.2656 2.00294C11.1133 1.36232 10.6133 0.811539 9.98828 0.604507C9.70703 0.510757 9.13672 0.499039 8.84375 0.577164ZM9.23438 13.0108C9.23438 13.0615 8.39453 15.1709 8.375 15.1709C8.35156 15.1709 8.05078 14.3858 8.07031 14.374C8.07422 14.3701 8.16797 14.3311 8.27734 14.2881C8.75391 14.1006 8.87891 13.4561 8.50781 13.0889L8.40234 12.9834H8.82031C9.04688 12.9834 9.23438 12.9951 9.23438 13.0108Z" fill="#232735"/>
</svg>
