<svg width="24" height="24" viewBox="0 0 24 24" fill="none" xmlns="http://www.w3.org/2000/svg">
<path d="M14.6718 1.48591C13.0734 1.59372 11.6343 2.38122 10.6687 3.67497C9.53431 5.19372 9.29993 7.34997 10.0687 9.13591C10.6077 10.3875 11.7281 11.489 12.9515 11.9812C13.1624 12.0656 13.364 12.1734 13.3921 12.2203C13.439 12.2906 13.439 12.525 13.4062 13.2656C13.3827 13.7953 13.3593 14.3437 13.3593 14.4843C13.3593 14.7328 13.3593 14.7375 13.4437 14.6484C13.4952 14.5968 13.8843 14.0765 14.3202 13.4859C14.8406 12.7828 15.1406 12.4125 15.2062 12.4031C15.2577 12.389 15.5296 12.3468 15.8062 12.3047C16.9781 12.1312 17.9531 11.625 18.7781 10.7718C19.4202 10.1062 19.7812 9.52028 20.0624 8.68122C20.714 6.73122 20.1937 4.4906 18.7546 3.04216C17.6999 1.98747 16.1296 1.38747 14.6718 1.48591ZM16.9593 3.37497C17.0202 3.41247 17.3484 3.87653 17.6859 4.40622L18.3046 5.36247V7.19528C18.3046 8.9156 18.2999 9.03278 18.2156 9.17341C18.0468 9.45466 18.1359 9.44528 15.0656 9.45935C12.0093 9.47341 11.9812 9.46872 11.7937 9.22028C11.6952 9.08903 11.6952 9.04216 11.6952 7.20466V5.32028L12.2531 4.4531C12.8765 3.47341 12.9468 3.38903 13.1437 3.3281C13.2234 3.30466 14.0906 3.2906 15.0702 3.29528C16.5656 3.30466 16.8702 3.31403 16.9593 3.37497Z" fill="white"/>
<path d="M12.8906 4.39219C12.7031 4.69687 12.5156 4.99219 12.4781 5.04844L12.4125 5.15625H13.5656H14.7187V4.5V3.84375H13.9781H13.2375L12.8906 4.39219Z" fill="white"/>
<path d="M15.2812 4.5V5.15625H16.4109C17.2969 5.15625 17.5313 5.14219 17.5031 5.09531C17.4844 5.06719 17.3016 4.77187 17.1 4.43906L16.725 3.84375H16.0031H15.2812V4.5Z" fill="white"/>
<path d="M12.2344 7.3125V8.90625H13.1953H14.1563V7.62656C14.1563 6.69844 14.175 6.31875 14.2172 6.23437C14.325 6.01406 14.4703 6.05625 15.1313 6.48281C15.6609 6.82969 15.7406 6.89531 15.7641 7.03125C15.7828 7.11562 15.7969 7.57031 15.7969 8.04375V8.90625H16.7813H17.7656V7.3125V5.71875H15H12.2344V7.3125Z" fill="white"/>
<path d="M14.7188 7.875V8.90625H14.9766H15.2344V8.025V7.14844L15 6.99375C14.8734 6.91406 14.7563 6.84375 14.7422 6.84375C14.7281 6.84375 14.7188 7.30781 14.7188 7.875Z" fill="white"/>
<path d="M5.51719 7.73891C5.42344 7.81859 5.34375 7.90766 5.34375 7.93578C5.34375 7.96859 6.00469 8.65297 6.81562 9.46391C7.81406 10.4623 8.31094 10.9264 8.35781 10.9077C8.45156 10.8702 8.65312 10.5983 8.68594 10.4577C8.7 10.392 8.68594 10.2748 8.64375 10.1952C8.60625 10.1155 8.02031 9.49672 7.34531 8.82172L6.1125 7.59359H5.90156C5.7375 7.59359 5.65781 7.62641 5.51719 7.73891Z" fill="white"/>
<path d="M4.47185 8.77549C4.20935 9.04268 3.95623 9.31924 3.90467 9.39893C3.55779 9.90518 3.57654 10.9552 3.95623 12.1036C4.57967 13.9974 5.8406 16.0411 7.49529 17.8364C10.3078 20.8974 14.8594 23.1614 16.5703 22.3552C16.7015 22.2942 16.9734 22.0599 17.2828 21.7458C17.564 21.4599 17.7937 21.2161 17.8031 21.1974C17.8078 21.1786 17.1375 20.4896 16.3125 19.6646L14.8172 18.1692L14.2875 18.6849C13.4531 19.5005 13.2515 19.5333 12.2719 19.0083C11.264 18.4599 10.3922 17.7942 9.42185 16.8286C7.9406 15.3567 6.85779 13.7489 6.80623 12.9567C6.7781 12.5302 6.88592 12.338 7.4531 11.813C7.71092 11.5786 7.92185 11.3583 7.92185 11.3302C7.92185 11.2974 7.25154 10.6036 6.43123 9.7833L4.94529 8.29737L4.47185 8.77549Z" fill="white"/>
<path d="M15.4921 17.5273C15.4171 17.5742 15.3093 17.6586 15.2625 17.7148L15.1687 17.818L16.6781 19.3227L18.1828 20.832L18.2859 20.743C18.5062 20.5367 18.5718 20.2602 18.45 20.0258C18.3656 19.8758 16.05 17.5648 15.9046 17.4898C15.7593 17.4148 15.6515 17.4242 15.4921 17.5273Z" fill="white"/>
</svg>
