<svg width="24" height="24" viewBox="0 0 24 24" fill="none" xmlns="http://www.w3.org/2000/svg">
<g clip-path="url(#clip0_5652_49937)">
<path d="M7.82809 0.0706436C6.46871 0.276894 5.18902 0.778456 4.04527 1.54252C1.87496 2.99564 0.44996 5.26908 0.065585 7.88002C-0.0516025 8.69096 -0.00472747 10.2238 0.159335 11.0066C0.328085 11.7941 0.56246 12.4738 0.91871 13.2097C1.08277 13.5472 1.21871 13.8472 1.21871 13.8706C1.21871 13.8941 0.946835 14.9019 0.609335 16.1066C0.276523 17.3113 0.00933502 18.305 0.0140225 18.3144C0.0233975 18.3191 1.01715 18.0519 2.22652 17.7191C3.43121 17.3816 4.43902 17.1097 4.46246 17.1097C4.48121 17.1097 4.78121 17.2456 5.11871 17.4097C5.85934 17.7706 6.53434 18.0003 7.34527 18.1738C7.90309 18.291 8.02496 18.3003 9.11715 18.305C10.0687 18.305 10.3781 18.2863 10.7578 18.216C14.7 17.4847 17.6718 14.4191 18.2531 10.4863C18.3515 9.83471 18.3515 8.48471 18.2578 7.85189C17.8921 5.40033 16.5796 3.21596 14.6015 1.75814C13.5093 0.951894 12.3093 0.431581 10.8843 0.136269C10.275 0.00970606 8.49371 -0.0277939 7.82809 0.0706436ZM10.0078 4.38314C10.6312 4.59408 11.114 4.95971 11.475 5.49877C11.8031 5.99564 11.9296 6.41752 11.9296 7.03158C11.9296 8.01596 11.6437 8.53158 10.5515 9.53471L9.84371 10.1816V10.7394V11.2972H9.16402H8.48434L8.48902 10.4394V9.58627L9.38902 8.76596C10.4859 7.76283 10.5703 7.63627 10.5703 7.03158C10.5703 6.69408 10.5515 6.60033 10.4437 6.39408C10.3125 6.14564 10.0453 5.87377 9.78746 5.73314C9.56715 5.61127 8.7609 5.61127 8.54059 5.73314C8.12809 5.95814 7.80934 6.39877 7.7484 6.82064L7.72027 7.03158H7.04059H6.3609L6.39371 6.73627C6.53902 5.44252 7.58434 4.40189 8.88277 4.27064C9.23434 4.23314 9.70308 4.28002 10.0078 4.38314ZM9.84371 13.4066V14.1097H9.16402H8.48434V13.4066V12.7035H9.16402H9.84371V13.4066Z" fill="white"/>
<path d="M19.6875 9.59094C19.6875 10.0222 19.6125 10.655 19.4953 11.2456C18.7359 15.0425 15.839 18.1972 12.1031 19.2847C11.2922 19.5238 10.289 19.6831 9.63748 19.6878C9.21091 19.6878 9.2156 19.655 9.5531 20.2175C9.91873 20.8269 10.3265 21.3331 10.875 21.8581C11.9437 22.88 13.1953 23.5409 14.6859 23.8691C15.1031 23.9628 15.3 23.9769 16.2422 23.9769C17.1844 23.9769 17.3812 23.9628 17.7984 23.8691C18.4922 23.7191 19.0781 23.5175 19.6828 23.2222L20.2219 22.9597L22.0969 23.48C23.1281 23.7613 23.9765 23.9909 23.9859 23.9863C23.9906 23.9769 23.7609 23.1284 23.4797 22.0972L22.9594 20.2222L23.2219 19.6831C23.5219 19.0597 23.7187 18.5019 23.8687 17.8128C23.9625 17.3816 23.9765 17.1894 23.9765 16.2425C23.9765 15.0519 23.9203 14.6722 23.6203 13.7722C23.0484 12.0519 21.7969 10.5003 20.2172 9.55344C19.6594 9.21594 19.6875 9.21594 19.6875 9.59094Z" fill="white"/>
</g>
<defs>
<clipPath id="clip0_5652_49937">
<rect width="24" height="24" fill="white"/>
</clipPath>
</defs>
</svg>
