<svg width="24" height="24" viewBox="0 0 24 24" fill="none" xmlns="http://www.w3.org/2000/svg">
<g clip-path="url(#clip0_5652_49980)">
<path d="M5.95313 2.04336C5.03438 2.24024 4.27031 2.99024 4.05469 3.89493C3.99375 4.15274 3.98438 4.98711 3.98438 9.99336C3.98438 14.0012 3.99844 15.8668 4.03594 16.0402C4.17188 16.6965 4.69219 17.3949 5.27344 17.7043C5.88281 18.0231 5.23125 17.9996 14.0063 17.9996H21.9422L22.2984 17.8824C23.1141 17.6059 23.7188 16.9684 23.9344 16.1481C23.9859 15.9606 24 14.7793 24 10.0074C24 3.54805 24.0094 3.83399 23.7281 3.30899C23.6578 3.17774 23.4656 2.9293 23.3016 2.75118C22.9547 2.38555 22.4438 2.1043 21.9656 2.01993C21.7734 1.98243 19.2563 1.96836 13.9734 1.97305C7.52813 1.97305 6.20625 1.98711 5.95313 2.04336ZM21.7922 4.15274C21.8719 4.21836 21.9469 4.33555 21.9609 4.41993C21.975 4.5043 21.9797 6.13086 21.975 8.03868L21.9609 11.5027L20.3344 9.60899C19.4391 8.56368 18.6328 7.66368 18.5438 7.60274C17.8594 7.13868 16.9266 7.19024 16.3313 7.71993C16.2469 7.79024 15.3422 8.85899 14.3203 10.0918L12.4547 12.3324L11.7656 11.6527C10.9828 10.8793 10.7063 10.7059 10.1672 10.659C9.825 10.6262 9.37031 10.7199 9.09844 10.884C9.00469 10.9356 8.26875 11.6387 7.46719 12.4402L6 13.8981V9.23399C6 6.18243 6.01875 4.50899 6.04688 4.39649C6.075 4.30274 6.15 4.18086 6.22031 4.12461C6.34219 4.03086 6.35625 4.03086 13.9969 4.03086H21.6469L21.7922 4.15274Z" fill="white"/>
<path d="M8.57804 5.02031C8.00148 5.13281 7.4296 5.59219 7.16242 6.16406C7.0546 6.40313 7.0171 6.55781 6.99835 6.85781C6.9421 7.72031 7.34523 8.42813 8.09992 8.79844C8.45148 8.97188 8.46554 8.97656 8.99992 8.97656C9.53429 8.97656 9.54835 8.97188 9.89992 8.79844C10.6546 8.42813 11.0577 7.72031 11.0015 6.85781C10.9265 5.63906 9.79679 4.78125 8.57804 5.02031Z" fill="white"/>
<path d="M2.47494 8.95312C2.45619 8.99062 1.89838 10.8281 1.23744 13.0312C0.0983776 16.8234 0.0327526 17.0625 0.00931514 17.4937C-0.00474736 17.8641 0.00931514 18.0047 0.0890026 18.2719C0.271815 18.8812 0.73119 19.4156 1.289 19.6687C1.42025 19.725 5.03432 20.7187 9.32807 21.8719L17.1328 23.9719H17.7234L18.314 23.9766L18.7124 23.7797C19.1578 23.5594 19.514 23.2219 19.7062 22.8328C19.8093 22.6359 20.7656 19.6641 20.7656 19.5516C20.7656 19.5141 18.6281 19.5 13.5843 19.5C9.51557 19.5 6.20619 19.4766 5.94838 19.4531C4.589 19.3219 3.45463 18.5203 2.88744 17.2875C2.54057 16.5469 2.564 16.7953 2.53119 12.6328C2.51713 10.5703 2.49369 8.91562 2.47494 8.95312Z" fill="white"/>
</g>
<defs>
<clipPath id="clip0_5652_49980">
<rect width="24" height="24" fill="white"/>
</clipPath>
</defs>
</svg>
