<svg width="24" height="24" viewBox="0 0 24 24" fill="none" xmlns="http://www.w3.org/2000/svg">
<g clip-path="url(#clip0_5652_49976)">
<path d="M18.211 0.0710933C18.1875 0.0757808 18.0094 0.108593 17.8266 0.141406L17.4844 0.197656V0.788281V1.38359L17.2078 1.49141C17.0531 1.55234 16.7578 1.71641 16.5469 1.85703C16.336 1.99297 16.1531 2.11016 16.1344 2.11016C16.1156 2.10547 15.8906 1.98359 15.6328 1.82891L15.1641 1.55703L15.0281 1.67891C14.8031 1.88516 14.3766 2.48984 14.1703 2.88828C13.9594 3.29141 13.711 3.97578 13.7578 4.02266C13.7766 4.04141 13.9922 4.17266 14.2406 4.31328L14.6906 4.57109L14.6953 5.34922V6.12266L14.2172 6.39922C13.6735 6.70859 13.6969 6.65234 13.8985 7.19609C14.1375 7.83828 14.4985 8.43828 14.9203 8.88359L15.1641 9.14141L15.6469 8.86016C15.9141 8.70547 16.1391 8.57891 16.1485 8.57891C16.1578 8.57891 16.3031 8.67266 16.4719 8.78984C16.6406 8.90703 16.936 9.08047 17.1281 9.16953L17.4844 9.33359V9.91016V10.4867L17.8969 10.5711C18.4266 10.6742 19.2938 10.6742 19.8656 10.5711L20.2969 10.4914V9.89609V9.30547L20.5735 9.19766C20.7281 9.13672 21.0235 8.97266 21.2344 8.83203L21.6188 8.57891L22.1203 8.86484L22.6172 9.15078L22.8188 8.92578C23.1235 8.58828 23.4047 8.18047 23.6156 7.75859C23.8266 7.34141 24.0141 6.82109 23.9906 6.71797C23.9813 6.67578 23.7656 6.52578 23.5078 6.37578C23.1563 6.16953 23.0438 6.08047 23.0485 6.01484C23.0766 5.82266 23.0672 4.84297 23.0391 4.73047C23.011 4.61328 23.0344 4.58984 23.4844 4.33203C23.7469 4.18672 23.9719 4.03672 23.986 4.00391C24.0469 3.83984 23.6438 2.89766 23.2735 2.34453C23.1563 2.17578 22.9641 1.92734 22.8422 1.79141L22.6172 1.54297L22.1297 1.82891C21.8625 1.98359 21.6328 2.11016 21.6188 2.11016C21.6094 2.11016 21.45 2.01172 21.2625 1.88516C21.0797 1.76328 20.7891 1.59922 20.6156 1.52422L20.3016 1.38359L20.2875 0.797656L20.2735 0.211718L19.8985 0.132031C19.5703 0.0664058 18.3703 0.0195308 18.211 0.0710933ZM19.6594 3.60078C20.2594 3.88203 20.6625 4.40703 20.775 5.05391C20.8688 5.62109 20.6953 6.19766 20.2922 6.63359C19.3594 7.64609 17.761 7.40234 17.1469 6.15547C17.0016 5.85547 16.9922 5.80859 16.9922 5.34453C16.9922 4.90859 17.0063 4.81953 17.1141 4.59453C17.3625 4.07422 17.7938 3.68047 18.2953 3.51641C18.7219 3.37578 19.2516 3.40859 19.6594 3.60078Z" fill="white"/>
<path d="M9.71252 6.87695C9.68908 6.92383 9.5719 7.22383 9.45002 7.54727L9.22971 8.1332H8.49377C8.09065 8.13789 7.70627 8.15195 7.64065 8.16602C7.52815 8.19883 7.5094 8.1707 7.2469 7.56133C7.09221 7.21445 6.94221 6.91914 6.9094 6.90508C6.73596 6.83945 5.27815 7.33633 4.59377 7.69727C4.16721 7.92227 3.40315 8.40508 3.35627 8.47539C3.3469 8.49414 3.4594 8.79414 3.61408 9.14102L3.89533 9.77383L3.43127 10.2426C3.17815 10.5004 2.91565 10.7816 2.85002 10.8707L2.73283 11.0254L2.10471 10.7863C1.75783 10.6551 1.45315 10.5473 1.42033 10.5473C1.34065 10.5473 0.979708 11.1473 0.712521 11.7191C0.435958 12.3098 0.220333 12.9426 0.0937709 13.5473C-0.0562291 14.2645 -0.0937291 14.1941 0.595333 14.452C0.928146 14.5738 1.21877 14.691 1.2469 14.7098C1.2844 14.7332 1.30783 15.0238 1.31721 15.591L1.33596 16.4441L0.712521 16.716C0.370333 16.866 0.0797084 17.002 0.0656459 17.0207C0.0328334 17.077 0.309396 18.0801 0.468771 18.5066C0.670333 19.027 1.01721 19.6926 1.34065 20.1801C1.48596 20.4004 1.6219 20.5926 1.64533 20.602C1.66408 20.616 1.96408 20.4988 2.31565 20.3395L2.94846 20.0535L3.33752 20.4473C3.55315 20.6629 3.8344 20.9254 3.96565 21.0285L4.20471 21.216L3.95627 21.8723C3.81565 22.2285 3.70315 22.5379 3.70315 22.552C3.70315 22.5988 4.37815 22.9973 4.80471 23.1988C5.52658 23.541 6.55315 23.8645 7.14846 23.9348L7.39221 23.9629L7.57971 23.4801C7.68283 23.2129 7.79533 22.9129 7.83283 22.8145L7.89377 22.641L8.61096 22.6316C9.00471 22.627 9.39377 22.6223 9.47346 22.6223C9.6094 22.6176 9.62346 22.6363 9.89533 23.2504C10.05 23.5973 10.1813 23.8832 10.186 23.8926C10.1953 23.8973 10.3266 23.8738 10.4813 23.8363C11.4235 23.616 12.5297 23.1379 13.3219 22.6129C13.575 22.4441 13.7813 22.2895 13.7813 22.2707C13.7813 22.2473 13.6547 21.952 13.5047 21.6051L13.2281 20.9816L13.5703 20.6629C13.7578 20.4848 14.025 20.2082 14.1563 20.0441L14.4 19.7441L15.0563 19.9973C15.4172 20.1379 15.7266 20.241 15.75 20.227C15.9 20.1332 16.5656 18.7973 16.7813 18.1457C16.9172 17.7379 17.1797 16.6035 17.1469 16.566C17.1375 16.5613 16.8375 16.4395 16.4813 16.3035L15.8344 16.0551L15.8203 15.2816C15.8156 14.8551 15.7922 14.4754 15.7781 14.4332C15.75 14.3723 15.8766 14.2973 16.4063 14.0629C16.8563 13.8613 17.0625 13.7441 17.0625 13.6926C17.0625 13.5566 16.8328 12.7645 16.6594 12.2957C16.3828 11.541 15.6 10.1723 15.45 10.1723C15.4172 10.1723 15.1172 10.2988 14.7844 10.4488L14.1797 10.7254L13.7297 10.2707C13.4813 10.0223 13.2 9.76445 13.1063 9.70352C13.0125 9.63789 12.9375 9.57227 12.9375 9.5582C12.9375 9.53945 13.0453 9.24883 13.1719 8.90664C13.3031 8.56445 13.4063 8.25977 13.4063 8.23164C13.4063 8.16602 12.5531 7.66445 12.1313 7.48164C11.5125 7.20977 10.6078 6.93789 9.92815 6.82539C9.79221 6.80195 9.74533 6.81133 9.71252 6.87695ZM9.51565 11.6301C9.99846 11.752 10.6453 12.0848 11.0438 12.4176C12.375 13.5238 12.8063 15.4504 12.075 17.002C11.836 17.4988 11.5828 17.8504 11.1891 18.216C10.4813 18.8723 9.71252 19.1957 8.74221 19.252C6.84846 19.3598 5.11877 17.9863 4.75315 16.0926C4.36877 14.0676 5.71877 12.0379 7.74377 11.6066C8.3719 11.4707 8.90627 11.4801 9.51565 11.6301Z" fill="white"/>
</g>
<defs>
<clipPath id="clip0_5652_49976">
<rect width="24" height="24" fill="white"/>
</clipPath>
</defs>
</svg>
