<svg width="24" height="24" viewBox="0 0 24 24" fill="none" xmlns="http://www.w3.org/2000/svg">
<g clip-path="url(#clip0_5652_50007)">
<path d="M3.99372 1.75763C1.81872 2.32481 0.473406 2.69513 0.417156 2.74669C0.309344 2.84044 0.299969 3.06075 0.398406 3.15919C0.464031 3.22013 0.646844 3.28575 1.16247 3.42169L1.35934 3.47325V3.93263V4.39669L1.19528 4.56075C1.02184 4.73419 0.984344 4.90763 1.07809 5.11856C1.11559 5.19825 1.09216 5.40919 0.989031 5.95294C0.801531 6.942 0.782781 6.90919 1.53278 6.92794C2.09528 6.942 2.10466 6.93731 2.17966 6.82481C2.24997 6.717 2.24997 6.66075 2.11872 5.967C2.02497 5.48419 1.99216 5.19825 2.02028 5.14669C2.12341 4.95919 2.01559 4.54669 1.85153 4.48575C1.79528 4.46231 1.78122 4.37325 1.78122 4.08263C1.78122 3.71231 1.78591 3.70294 1.90309 3.67481C1.99216 3.65138 2.84997 3.85763 4.70622 4.34044C7.35466 5.0295 7.38747 5.03888 7.87497 5.03419C8.35778 5.03419 8.41872 5.02013 11.789 4.13888C15.3703 3.20138 15.375 3.20138 15.375 2.95294C15.375 2.70919 15.3703 2.70919 11.6953 1.75763C8.59216 0.951377 8.13747 0.843565 7.82809 0.848252C7.52809 0.848252 6.96559 0.98419 3.99372 1.75763Z" fill="white"/>
<path d="M3 6.0607C3 7.08258 3.01875 7.82789 3.04687 7.93101C3.12656 8.21695 3.32812 8.37164 3.81094 8.52633C4.89375 8.8732 5.86406 9.05601 7.05 9.14508C8.56875 9.25758 10.2891 9.03726 11.8828 8.53101C12.3797 8.37164 12.5719 8.20289 12.6562 7.87476C12.6891 7.73414 12.7031 7.10133 12.6937 6.01851L12.6797 4.3732L10.5469 4.93101C8.77031 5.39976 8.33906 5.49351 7.96875 5.51695C7.47656 5.54039 7.8375 5.62008 4.1625 4.66851L3 4.36851V6.0607Z" fill="white"/>
<path d="M13.1625 6.57187C13.1484 7.84687 13.1438 7.95937 13.05 8.15625C12.8297 8.62969 12.5766 8.80312 11.7703 9.04219C10.1719 9.51562 8.53125 9.71719 7.12031 9.61406C6.72188 9.58594 6.27656 9.54844 6.13125 9.53437L5.85938 9.50156V15.0187V20.5312H10.8891C16.4578 20.5312 16.2094 20.5172 16.5797 20.8359C16.8328 21.0516 16.9547 21.3141 17.0109 21.7828C17.0859 22.3781 17.3109 22.7391 17.775 22.9969C18 23.1187 18.0656 23.1328 18.4453 23.1328C18.8109 23.1328 18.9 23.1141 19.1063 23.0062C19.2375 22.9359 19.4344 22.7812 19.5375 22.6641C19.875 22.2844 19.875 22.2656 19.875 20.0203V18.0281L19.6313 18.2672C19.4953 18.3984 19.3359 18.5297 19.2797 18.5578C19.1016 18.6469 18.7875 18.6187 18.6047 18.4969C18.2953 18.2859 18.2813 18.2062 18.2813 16.8375V15.6234L18.0703 15.5953C17.5969 15.5297 17.1422 15.1641 16.9969 14.7281C16.95 14.6016 16.9219 14.3531 16.9219 14.1187V13.7203L16.5984 13.3828C16.2141 12.975 16.1016 12.7031 16.1391 12.2812C16.1672 11.9391 16.2938 11.6953 16.6359 11.3344L16.9125 11.0391L16.9313 10.5703C16.9547 10.0359 17.0297 9.83906 17.3297 9.55781C17.6203 9.27656 17.7797 9.22031 18.3047 9.19687L18.7734 9.17344L19.0781 8.89687C19.3828 8.61562 19.6641 8.4375 19.8047 8.4375C19.8656 8.4375 19.875 8.32031 19.875 7.57969C19.8797 6.27187 19.9359 6.00469 20.3484 5.44687L20.5359 5.20312H16.8563H13.1813L13.1625 6.57187ZM14.0391 12.3047C14.1891 12.45 14.1891 12.5812 14.0391 12.7266L13.9266 12.8437H10.7297H7.52813L7.42031 12.7406C7.28438 12.6141 7.28438 12.4359 7.41563 12.2953L7.51406 12.1875H10.7203H13.9266L14.0391 12.3047ZM13.8938 14.2969C14.0578 14.3578 14.175 14.55 14.1375 14.6953C14.0719 14.9578 14.1141 14.9578 10.6688 14.9437C7.63594 14.9297 7.50469 14.925 7.41094 14.8406C7.23281 14.6812 7.32656 14.3297 7.56094 14.2828C7.78125 14.2406 13.7766 14.25 13.8938 14.2969ZM16.8984 16.4766C17.0391 16.6172 17.0438 16.7297 16.9172 16.8937L16.8234 17.0156H12.1594C7.56094 17.0156 7.5 17.0156 7.40625 16.9219C7.27031 16.7859 7.28438 16.575 7.43438 16.4578C7.56094 16.3594 7.575 16.3594 12.1734 16.3594H16.7859L16.8984 16.4766ZM16.9172 18.5906C17.0438 18.7547 17.0391 18.8672 16.8984 19.0078L16.7859 19.125H12.1734C7.575 19.125 7.56094 19.125 7.43438 19.0266C7.28438 18.9094 7.27031 18.6984 7.40625 18.5625C7.5 18.4687 7.56094 18.4687 12.1594 18.4687H16.8234L16.9172 18.5906Z" fill="white"/>
<path d="M21.3703 5.26328C20.9578 5.41797 20.639 5.70859 20.4703 6.08828C20.3906 6.26172 20.3672 6.43047 20.3531 6.92734L20.3344 7.55078L21.6797 7.53672L23.025 7.52266L23.1422 7.38672C23.2547 7.25547 23.2594 7.22734 23.2406 6.77734C23.2172 6.23359 23.1328 5.98516 22.8469 5.67109C22.589 5.38984 22.2656 5.23984 21.8672 5.21641C21.6656 5.20703 21.4734 5.22578 21.3703 5.26328Z" fill="white"/>
<path d="M19.7578 8.93418C19.6828 8.97168 19.4719 9.1498 19.2891 9.32793L18.9609 9.65137L18.4172 9.66543C17.9109 9.67949 17.8641 9.68887 17.7094 9.80605C17.4516 10.0029 17.3906 10.1811 17.3906 10.7389V11.2217L17.0391 11.5779C16.6547 11.9717 16.5938 12.0889 16.5938 12.4029C16.5938 12.6889 16.7156 12.9045 17.0813 13.2654L17.3906 13.5654V14.0576C17.3906 14.4936 17.4047 14.5686 17.5078 14.7467C17.6859 15.0467 17.9156 15.1404 18.4922 15.1404H18.9516L19.2938 15.4686C19.95 16.1061 20.3016 16.1061 20.9672 15.4732L21.3141 15.1404H21.7688C22.2703 15.1404 22.4531 15.0842 22.65 14.8779C22.8328 14.6764 22.875 14.5264 22.875 14.0295V13.5795L23.2078 13.2326C23.5688 12.8529 23.6719 12.6607 23.6719 12.3889C23.6672 12.117 23.5266 11.8686 23.1844 11.5311L22.875 11.2311V10.7623C22.875 10.1811 22.7813 9.95137 22.4813 9.77324C22.3031 9.67012 22.2281 9.65605 21.7922 9.65605H21.3L21 9.34668C20.8313 9.17793 20.6156 8.9998 20.5219 8.94824C20.3109 8.84043 19.9547 8.83105 19.7578 8.93418ZM20.9063 10.7201C21.7453 11.1139 22.1672 12.0467 21.9 12.9186C21.7172 13.5092 21.2438 13.9826 20.6578 14.1607C19.7953 14.4279 18.8672 14.0107 18.4594 13.1811C18.3141 12.8904 18.3047 12.8342 18.3047 12.3982C18.3047 11.9717 18.3188 11.9014 18.45 11.6248C18.7828 10.9217 19.4063 10.5373 20.1797 10.5607C20.5359 10.5701 20.6484 10.5936 20.9063 10.7201Z" fill="white"/>
<path d="M18.75 16.8239C18.75 17.9911 18.7547 18.0426 18.8437 18.1083C19.0172 18.2301 19.1531 18.1458 19.5984 17.6676C19.8609 17.3817 20.0578 17.2036 20.1187 17.2036C20.175 17.2036 20.3859 17.3864 20.6578 17.6723C21.0516 18.0848 21.1266 18.1411 21.2625 18.1411C21.3703 18.1411 21.4359 18.1129 21.4687 18.052C21.525 17.9442 21.5344 15.6098 21.4781 15.6098C21.4594 15.6098 21.3281 15.727 21.1875 15.8723C20.7234 16.3411 20.2594 16.4911 19.7531 16.3317C19.5375 16.2661 19.4109 16.177 19.1437 15.9286C18.9609 15.7551 18.7969 15.6098 18.7781 15.6098C18.7641 15.6098 18.75 16.1583 18.75 16.8239Z" fill="white"/>
<path d="M3.7219 21.0937C3.60002 21.1547 3.49221 21.2578 3.4219 21.3797C3.33284 21.5484 3.31877 21.6141 3.3469 21.8578C3.40315 22.4062 3.75471 22.875 4.2469 23.0578C4.50002 23.1562 4.55627 23.1562 10.8328 23.1562H17.161L16.9735 22.9078C16.7203 22.5703 16.5985 22.275 16.5516 21.8437C16.5047 21.4031 16.4016 21.2156 16.1485 21.0937C15.9563 21 15.8391 21 9.93284 21C3.98909 21 3.9094 21 3.7219 21.0937Z" fill="white"/>
</g>
<defs>
<clipPath id="clip0_5652_50007">
<rect width="24" height="24" fill="white"/>
</clipPath>
</defs>
</svg>
