<svg width="24" height="24" viewBox="0 0 24 24" fill="none" xmlns="http://www.w3.org/2000/svg">
<g clip-path="url(#clip0_5608_21288)">
<path d="M11.3578 0.0656242C10.7109 0.276562 10.2188 0.768749 9.97031 1.44844L9.86719 1.73906L7.3125 3.67969L4.75781 5.62031L2.38125 5.625H0V14.8125V24H12H24V14.8125V5.625H21.6234L19.2422 5.62031L16.6875 3.67969L14.1328 1.73906L14.0344 1.4625C13.8328 0.876562 13.4531 0.449999 12.8953 0.173437C12.6141 0.0374985 12.5484 0.0234375 12.0703 0.014061C11.7328 0.00468636 11.4844 0.0234375 11.3578 0.0656242ZM10.4859 3.6C10.6547 3.77344 10.8797 3.93281 11.0859 4.03594C11.4047 4.19062 11.4281 4.19531 12 4.19531C12.5625 4.19531 12.6 4.19062 12.9047 4.04531C13.1109 3.94687 13.3219 3.79688 13.5047 3.60938C13.6969 3.42188 13.8094 3.3375 13.8469 3.36562C13.875 3.38906 14.55 3.9 15.3469 4.50469L16.7953 5.60156L14.3953 5.61562C13.0781 5.62031 10.9219 5.62031 9.60469 5.61562L7.20938 5.60156L8.7 4.46719C9.525 3.83906 10.2 3.32812 10.2047 3.32812C10.2094 3.32812 10.3359 3.45 10.4859 3.6ZM10.9688 9.49219V10.1719H10.2891H9.60938V9.49219V8.8125H10.2891H10.9688V9.49219ZM6.375 9.75V10.4531H7.24219H8.10938V13.5469V16.6406H5.69531H3.28125V13.5469V10.4531H4.14844H5.01562V9.75V9.04687H5.69531H6.375V9.75ZM18.9844 9.75V10.4531H19.8516H20.7188V13.5469V16.6406H18.3047H15.8906V13.5469V10.4531H16.7578H17.625V9.75V9.04687H18.3047H18.9844V9.75ZM12.7031 13.5938V14.2969H13.5703H14.4375V17.3906V20.4844H12.0234H9.60938V17.3906V14.2969H10.4766H11.3438V13.5938V12.8906H12.0234H12.7031V13.5938ZM5.8125 19.8047V20.4844H5.13281H4.45312V19.8047V19.125H5.13281H5.8125V19.8047ZM19.6875 19.8047V20.4844H19.0078H18.3281V19.8047V19.125H19.0078H19.6875V19.8047Z" fill="#232735" fill-opacity="0.25"/>
<path d="M4.64062 13.5469V15.2812H5.69531H6.75V13.5469V11.8125H5.69531H4.64062V13.5469Z" fill="#232735"/>
<path d="M17.25 13.5469V15.2812H18.3047H19.3594V13.5469V11.8125H18.3047H17.25V13.5469Z" fill="#232735"/>
<path d="M10.9688 17.3906V19.125H12.0234H13.0781V17.3906V15.6562H12.0234H10.9688V17.3906Z" fill="#232735"/>
</g>
<defs>
<clipPath id="clip0_5608_21288">
<rect width="24" height="24" fill="white"/>
</clipPath>
</defs>
</svg>
