<svg width="24" height="24" viewBox="0 0 24 24" fill="none" xmlns="http://www.w3.org/2000/svg">
<path d="M10.692 6.12051L9.89999 6.97251L9.01199 6.84051C8.51999 6.76851 8.02799 6.74451 7.90799 6.78051C7.78799 6.82851 7.48799 7.17651 7.24799 7.57251C6.80399 8.29251 6.74399 8.32851 5.83199 8.44851C5.25599 8.52051 4.82399 8.80851 4.67999 9.19251C4.53599 9.55251 5.17199 13.8605 5.45999 14.4845C5.67599 14.9765 6.29999 15.2045 6.89999 15.0005C7.12799 14.9285 7.31999 14.8205 7.31999 14.7725C7.31999 14.7125 7.21199 13.8725 7.07999 12.9005C6.79199 10.7525 6.79199 10.7765 7.04399 10.8245C7.21199 10.8605 7.31999 11.2685 7.63199 13.1885C8.06399 15.8045 8.13599 15.9485 9.02399 16.0445C9.67199 16.1165 10.404 15.8405 10.548 15.4565C10.596 15.3005 10.572 14.2205 10.488 12.9605C10.272 9.91251 10.284 9.48051 10.5 9.48051C10.74 9.48051 10.752 9.61251 10.98 12.5885C11.088 14.0045 11.232 15.2645 11.292 15.3725C11.52 15.8045 11.916 15.9605 12.72 15.9605C13.608 15.9605 14.232 15.6725 14.34 15.2165C14.376 15.0605 14.412 14.4245 14.436 13.8005C14.46 12.8765 14.496 12.6605 14.64 12.6605C14.772 12.6605 14.832 12.8285 14.844 13.3205C14.868 13.6805 14.904 14.2685 14.952 14.6045L15.012 15.2405H15.732C16.272 15.2405 16.464 15.2885 16.524 15.4325C16.632 15.7325 16.332 15.8405 15.396 15.8405C14.928 15.8405 14.496 15.9005 14.46 15.9605C14.292 16.2365 13.572 16.4765 12.72 16.5485L11.82 16.6205L11.784 17.0765C11.748 17.4365 11.808 17.5925 12.084 17.8565C12.396 18.1685 12.564 18.2165 14.34 18.4565C16.8 18.7925 17.184 18.7925 17.58 18.4445C17.892 18.1805 18.264 17.2085 19.092 14.4365L19.464 13.2005L18.912 12.2165C18.612 11.6645 18.312 11.1485 18.252 11.0525C18.168 10.9205 18.024 10.9805 17.568 11.3765C16.92 11.9525 16.26 12.1805 15.456 12.0845C14.196 11.9285 13.56 11.2445 13.476 9.98451C13.44 9.30051 13.476 9.10851 13.704 8.70051C14.388 7.53651 15.864 7.32051 16.716 8.25651C17.04 8.61651 16.752 8.71251 16.272 8.41251C15.108 7.68051 13.776 8.65251 13.98 10.0685C14.028 10.3685 14.136 10.7405 14.232 10.8845C14.688 11.6045 16.08 11.7845 16.92 11.2325C17.76 10.6805 17.808 10.5365 17.736 8.59251C17.676 7.15251 17.628 6.80451 17.4 6.37251C16.716 5.01651 14.832 5.22051 14.136 6.72051C13.8 7.45251 13.62 7.50051 13.728 6.80451C13.896 5.83251 13.92 5.88051 13.092 5.56851C11.832 5.08851 11.628 5.13651 10.692 6.12051Z" fill="white"/>
</svg>
