<svg width="24" height="24" viewBox="0 0 24 24" fill="none" xmlns="http://www.w3.org/2000/svg">
<g clip-path="url(#clip0_5652_49953)">
<path d="M7.0125 0.0749998C6.95156 0.13125 6.9375 0.257812 6.9375 0.660937V1.17187H6.49219C5.99531 1.17187 5.78438 1.23281 5.56406 1.44375C5.27344 1.72031 5.25 1.81875 5.25 2.90156C5.25 3.73125 5.25938 3.89531 5.325 3.95625C5.39063 4.02187 5.79844 4.03125 9.14063 4.03125C12.4828 4.03125 12.8906 4.02187 12.9563 3.95625C13.0219 3.89531 13.0313 3.73125 13.0313 2.90156C13.0313 1.81875 13.0078 1.72031 12.7172 1.44375C12.4969 1.23281 12.2859 1.17187 11.7891 1.17187H11.3438V0.660937C11.3438 0.257812 11.3297 0.13125 11.2688 0.0749998C11.2031 0.00937484 10.9453 -1.60187e-07 9.14063 -1.60187e-07C7.33594 -1.60187e-07 7.07813 0.00937484 7.0125 0.0749998Z" fill="white"/>
<path d="M2.62031 1.84219C2.53594 1.89844 2.41406 2.02031 2.35781 2.10469L2.25 2.26406V9.47344C2.25 13.4437 2.25938 16.6875 2.27344 16.6875C2.2875 16.6875 2.40938 16.6312 2.54063 16.5656C3.08906 16.2844 3.62344 16.1672 4.33594 16.1672C4.93125 16.1672 5.35313 16.2422 5.88281 16.4484C6.94688 16.8562 7.95938 17.925 8.30625 18.9984L8.40938 19.3125H10.5516H12.6984L12.7125 17.4469C12.7266 15.45 12.7219 15.4969 12.9797 15.2203C13.2422 14.9344 13.2656 14.9297 14.7094 14.9156L16.0313 14.8969V8.59687C16.0313 1.6125 16.0547 2.14687 15.7172 1.88906L15.5484 1.75781L14.475 1.74375L13.4016 1.72969L13.4391 1.95469C13.4578 2.07656 13.4766 2.56875 13.4766 3.04687C13.4766 3.82969 13.4672 3.92812 13.3828 4.07344C13.2609 4.27969 13.0922 4.40156 12.8625 4.45312C12.6234 4.50937 5.65781 4.50937 5.41875 4.45312C5.18906 4.40156 5.02031 4.27969 4.89844 4.07344C4.81406 3.92812 4.80469 3.82969 4.80469 3.04687C4.80469 2.56875 4.82344 2.08125 4.84219 1.95469L4.87969 1.73437H3.82969C2.81719 1.73437 2.775 1.73906 2.62031 1.84219ZM6.40781 5.45156C6.48281 5.52656 6.49219 5.64375 6.49219 6.72656C6.49219 7.80937 6.48281 7.92656 6.40781 8.00156C6.33281 8.07656 6.21563 8.08594 5.13281 8.08594C4.05 8.08594 3.93281 8.07656 3.85781 8.00156C3.78281 7.92656 3.77344 7.8 3.75938 6.80625C3.74531 5.625 3.76406 5.46562 3.94688 5.39062C4.00781 5.36719 4.56563 5.35312 5.18906 5.35781C6.21094 5.36719 6.33281 5.37656 6.40781 5.45156ZM14.3438 6.01406C14.4328 6.06094 14.4609 6.10781 14.4609 6.23437C14.4609 6.36094 14.4328 6.40781 14.3438 6.45469C14.175 6.53906 8.325 6.53906 8.15625 6.45469C8.06719 6.40781 8.03906 6.36094 8.03906 6.23437C8.03906 6.10781 8.06719 6.06094 8.15625 6.01406C8.24531 5.96719 8.94375 5.95312 11.25 5.95312C13.5563 5.95312 14.2547 5.96719 14.3438 6.01406ZM14.3438 6.99844C14.4328 7.04531 14.4609 7.09219 14.4609 7.21875C14.4609 7.5 14.4797 7.5 11.9531 7.5C9.42656 7.5 9.44531 7.5 9.44531 7.21875C9.44531 6.9375 9.42656 6.9375 11.9531 6.9375C13.6922 6.9375 14.2547 6.95156 14.3438 6.99844ZM6.40781 8.96719C6.48281 9.04219 6.49219 9.15937 6.49219 10.2422C6.49219 11.325 6.48281 11.4422 6.40781 11.5172C6.33281 11.5922 6.21563 11.6016 5.13281 11.6016C4.05 11.6016 3.93281 11.5922 3.85781 11.5172C3.78281 11.4422 3.77344 11.3156 3.75938 10.3219C3.74531 9.14062 3.76406 8.98125 3.94688 8.90625C4.00781 8.88281 4.56563 8.86875 5.18906 8.87344C6.21094 8.88281 6.33281 8.89219 6.40781 8.96719ZM14.3438 9.52969C14.4328 9.57656 14.4609 9.62344 14.4609 9.75C14.4609 9.87656 14.4328 9.92344 14.3438 9.97031C14.175 10.0547 8.325 10.0547 8.15625 9.97031C8.06719 9.92344 8.03906 9.87656 8.03906 9.75C8.03906 9.62344 8.06719 9.57656 8.15625 9.52969C8.24531 9.48281 8.94375 9.46875 11.25 9.46875C13.5563 9.46875 14.2547 9.48281 14.3438 9.52969ZM14.3438 10.5141C14.4328 10.5609 14.4609 10.6078 14.4609 10.7344C14.4609 11.0156 14.4797 11.0156 11.9531 11.0156C9.42656 11.0156 9.44531 11.0156 9.44531 10.7344C9.44531 10.4531 9.42656 10.4531 11.9531 10.4531C13.6922 10.4531 14.2547 10.4672 14.3438 10.5141ZM6.40781 12.4828C6.48281 12.5578 6.49219 12.675 6.49219 13.7344C6.49219 14.7937 6.48281 14.9109 6.40781 14.9859C6.33281 15.0609 6.21563 15.0703 5.13281 15.0703C4.05 15.0703 3.93281 15.0609 3.85781 14.9859C3.78281 14.9109 3.77344 14.7844 3.75938 13.8141C3.74531 12.6562 3.76406 12.4969 3.94688 12.4219C4.00781 12.3984 4.56563 12.3844 5.18906 12.3891C6.21094 12.3984 6.33281 12.4078 6.40781 12.4828ZM13.4063 12.9984C13.4953 13.0453 13.5234 13.0922 13.5234 13.2187C13.5234 13.5047 13.5609 13.5 10.7813 13.5C8.00156 13.5 8.03906 13.5047 8.03906 13.2187C8.03906 12.9328 8.00156 12.9375 10.7813 12.9375C12.7078 12.9375 13.3172 12.9516 13.4063 12.9984ZM13.4063 14.0297C13.4953 14.0766 13.5234 14.1234 13.5234 14.25C13.5234 14.5266 13.5 14.5312 11.4844 14.5312C9.46875 14.5312 9.44531 14.5266 9.44531 14.25C9.44531 13.9734 9.46875 13.9687 11.4844 13.9687C12.8484 13.9687 13.3172 13.9828 13.4063 14.0297Z" fill="white"/>
<path d="M4.3125 6.72656V7.54688H5.13281H5.95313V6.72656V5.90625H5.13281H4.3125V6.72656Z" fill="white"/>
<path d="M4.3125 10.2422V11.0625H5.13281H5.95313V10.2422V9.42187H5.13281H4.3125V10.2422Z" fill="white"/>
<path d="M4.3125 13.7344V14.5312H5.13281H5.95313V13.7344V12.9375H5.13281H4.3125V13.7344Z" fill="white"/>
<path d="M13.2891 15.4922L13.1719 15.6047V19.2891V22.9734L13.2891 23.0859L13.4016 23.2031H18.2578H23.1141L23.2266 23.0859L23.3438 22.9734V19.2891V15.6047L23.2266 15.4922L23.1141 15.375H21.5531H19.9922V16.6734C19.9922 17.8172 19.9828 17.9953 19.9125 18.1219C19.8141 18.3047 19.5797 18.5062 19.4156 18.5531C19.2516 18.5953 17.3109 18.5953 17.1469 18.5531C16.9828 18.5062 16.7484 18.3047 16.65 18.1219C16.5797 17.9953 16.5703 17.8172 16.5703 16.6734V15.375H14.9859H13.4016L13.2891 15.4922ZM22.0781 20.4047C22.1672 20.4516 22.1953 20.4984 22.1953 20.625C22.1953 20.8922 22.1344 20.9062 20.625 20.9062C19.1156 20.9062 19.0547 20.8922 19.0547 20.625C19.0547 20.3578 19.1156 20.3437 20.625 20.3437C21.6094 20.3437 21.9938 20.3625 22.0781 20.4047ZM22.0781 21.3422C22.1672 21.3891 22.1953 21.4359 22.1953 21.5625C22.1953 21.8391 22.1672 21.8437 20.2266 21.8437C18.2859 21.8437 18.2578 21.8391 18.2578 21.5625C18.2578 21.2859 18.2859 21.2812 20.2266 21.2812C21.5297 21.2812 21.9891 21.2953 22.0781 21.3422Z" fill="white"/>
<path d="M17.0719 15.4322C17.0297 15.4744 17.0156 15.8307 17.0156 16.7353C17.0156 17.8885 17.0203 17.9916 17.1 18.0619C17.2266 18.1791 19.2844 18.1791 19.4438 18.0666C19.5469 17.9963 19.5469 17.9822 19.5469 16.74C19.5469 15.8307 19.5328 15.4744 19.4906 15.4322C19.4109 15.3525 17.1516 15.3525 17.0719 15.4322Z" fill="white"/>
<path d="M3.42189 16.6879C3.2297 16.7394 2.86876 16.88 2.62501 16.9972C2.24533 17.1847 2.11408 17.2832 1.7297 17.6675C1.34533 18.0519 1.24689 18.1832 1.05939 18.5629C0.731265 19.2379 0.642202 19.655 0.66564 20.4332C0.68439 20.9957 0.70314 21.1175 0.829702 21.4785C1.26564 22.7207 2.20314 23.5879 3.45939 23.9113C3.95158 24.0379 4.77658 24.0332 5.27814 23.9066C6.51564 23.5879 7.45783 22.716 7.88908 21.4785C8.01564 21.1175 8.03439 20.9957 8.05314 20.4332C8.07658 19.655 7.98752 19.2379 7.65939 18.5629C7.47189 18.1832 7.37345 18.0519 6.98908 17.6675C6.6047 17.2832 6.47345 17.1847 6.09377 17.0019C5.46564 16.6925 5.03908 16.5941 4.34064 16.5988C3.93751 16.5988 3.67033 16.6269 3.42189 16.6879ZM5.87814 19.2004C6.04689 19.3691 5.98126 19.4582 4.98751 20.4425C4.45783 20.9675 3.98439 21.4129 3.92814 21.4363C3.85314 21.4644 3.74533 21.3847 3.33751 20.991C3.06095 20.7238 2.82189 20.4847 2.80314 20.4613C2.7422 20.3816 2.76095 20.2129 2.84064 20.1379C2.97658 19.9972 3.09845 20.0535 3.50158 20.4472L3.89533 20.8363L4.74376 19.9785C5.61564 19.0972 5.71408 19.0316 5.87814 19.2004Z" fill="white"/>
</g>
<defs>
<clipPath id="clip0_5652_49953">
<rect width="24" height="24" fill="white"/>
</clipPath>
</defs>
</svg>
