<svg width="20" height="20" viewBox="0 0 20 20" fill="none" xmlns="http://www.w3.org/2000/svg">
<g clip-path="url(#clip0_5608_21198)">
<path d="M1.10938 0.34375C0.660156 0.5 0.332031 0.796875 0.128906 1.23438L0.0195312 1.46484L0.0078125 8.97656L0 16.4883L0.203125 16.3242C0.316406 16.2383 0.503906 16.1172 0.625 16.0547C1.04297 15.8438 1.22656 15.8125 2.29688 15.793L3.28125 15.7734V8.02344V0.273438H2.29688C1.45703 0.277344 1.27734 0.285156 1.10938 0.34375Z" fill="#232735"/>
<path d="M3.90625 8.02734V15.7812H8.96484C11.7461 15.7812 14.0234 15.7695 14.0234 15.75C14.0234 15.7344 14.0664 15.3281 14.1211 14.8477C14.2461 13.7109 14.2461 13.7305 14.1016 13.6719C13.957 13.6133 13.7227 13.3555 13.6484 13.1797C13.6133 13.0938 13.5938 12.8906 13.5938 12.5664V12.0859L13.2969 11.9531C12.8242 11.7461 12.2109 11.3164 11.7969 10.8984C11.0352 10.1367 10.5391 9.1875 10.3594 8.15234L10.293 7.77344H8.64844H7L6.87891 7.67188C6.69531 7.51953 6.71484 7.27344 6.91797 7.16797C7.00781 7.11719 7.30469 7.10938 8.67188 7.10938H10.3125V6.92188C10.3125 6.82031 10.3398 6.58984 10.3711 6.40625C10.4023 6.22266 10.4297 6.07031 10.4297 6.0625C10.4297 6.05859 9.40234 6.05469 8.14453 6.05469C5.65234 6.05469 5.66797 6.05469 5.58594 5.83594C5.52734 5.68359 5.53906 5.62891 5.66016 5.50391L5.77344 5.39062H8.19141H10.6094L10.7188 5.13672C10.7773 5 10.8984 4.76953 10.9805 4.63281C11.0625 4.49219 11.1328 4.37109 11.1328 4.35938C11.1328 4.34375 9.94531 4.33594 8.49609 4.33594C5.61719 4.33594 5.66797 4.33984 5.58594 4.11719C5.52734 3.96484 5.53906 3.91016 5.66016 3.78516L5.77344 3.67188H8.71094H11.6445L11.9023 3.45312C12.75 2.73047 13.8203 2.26953 14.9531 2.12891L15.1562 2.10156V1.1875V0.273438H9.53125H3.90625V8.02734ZM12.1602 2.15625C12.3672 2.26562 12.4062 2.50391 12.2422 2.66016L12.1406 2.75391L9.57031 2.76562L7 2.77344L6.87891 2.67188C6.69141 2.51562 6.71875 2.27344 6.93359 2.15625C7.04688 2.09375 12.043 2.09375 12.1602 2.15625Z" fill="#232735" fill-opacity="0.25"/>
<path d="M14.6914 2.79714C12.9688 3.0862 11.5273 4.4026 11.0664 6.11354C10.9688 6.47682 10.9609 6.55886 10.9609 7.28542C10.9609 8.01979 10.9688 8.09011 11.0703 8.45729C11.4219 9.73464 12.2852 10.7815 13.4648 11.3635C14.0469 11.6526 14.582 11.7854 15.293 11.8206C17.4141 11.926 19.3086 10.5315 19.875 8.44948C19.9688 8.09401 19.9766 8.00807 19.9766 7.28542C19.9766 6.55886 19.9688 6.47682 19.8711 6.11354C19.2578 3.8401 17.0195 2.40651 14.6914 2.79714ZM15.9375 3.49635C16.6719 3.55885 17.4844 3.94167 18.082 4.50807C19.207 5.58229 19.5781 7.15261 19.043 8.57839C18.6016 9.75026 17.6055 10.6604 16.4062 10.9846C15.9375 11.1096 14.9766 11.1096 14.5117 10.9846C13.625 10.7424 12.8047 10.1565 12.3086 9.41432C11.6523 8.43386 11.4766 7.25807 11.8242 6.15651C12.2188 4.91042 13.2109 3.94557 14.4688 3.59401C14.7734 3.51198 15.3359 3.44167 15.5664 3.4651C15.6328 3.46901 15.7969 3.48464 15.9375 3.49635Z" fill="#232735"/>
<path d="M14.8986 4.15625C14.508 4.23047 14.3674 4.28125 13.9729 4.48047C13.3752 4.78906 12.8049 5.40625 12.5432 6.02734C12.258 6.71875 12.2229 7.58594 12.4572 8.28125C12.8088 9.32812 13.6018 10.0703 14.6682 10.3555C15.1057 10.4727 15.8322 10.4727 16.2697 10.3555C16.8791 10.1914 17.3713 9.89844 17.801 9.4375C18.1135 9.10937 18.3244 8.74609 18.4807 8.28125C18.715 7.58594 18.6799 6.71875 18.3947 6.02734C18.0393 5.17969 17.1955 4.44922 16.301 4.21484C15.9065 4.11328 15.2658 4.08594 14.8986 4.15625Z" fill="#232735"/>
<path d="M14.2188 12.6719C14.2188 12.9805 14.2266 13.0078 14.3203 13.082C14.4219 13.1602 14.4727 13.1641 15.4688 13.1641C16.4648 13.1641 16.5156 13.1602 16.6172 13.082C16.7109 13.0078 16.7188 12.9844 16.7188 12.668V12.332L16.5547 12.3594C15.8281 12.4766 15.2539 12.4883 14.6719 12.4023C14.457 12.3711 14.2695 12.3438 14.25 12.3438C14.2344 12.3438 14.2188 12.4922 14.2188 12.6719Z" fill="#232735"/>
<path d="M14.8828 13.8516C14.8828 13.8633 14.7656 14.957 14.625 16.2812C14.3398 18.9492 14.3398 18.918 14.5742 19.2695C14.7695 19.5664 15.082 19.7266 15.4687 19.7266C15.9101 19.7266 16.2734 19.5117 16.4609 19.1328C16.6015 18.8516 16.5976 18.6992 16.3711 16.4336C16.2617 15.375 16.164 14.3594 16.1484 14.168L16.1211 13.8281H15.5039C15.1601 13.8281 14.8828 13.8398 14.8828 13.8516Z" fill="#232735"/>
<path d="M1.23047 16.5005C0.75 16.6216 0.347656 16.9458 0.140625 17.3833C0.0273438 17.6216 0.0195312 17.6646 0.0195312 18.0864C0.0195312 18.5083 0.0273438 18.5513 0.140625 18.7896C0.300781 19.1255 0.578125 19.4067 0.917969 19.5747L1.19141 19.7075L7.64453 19.7192C11.1953 19.7231 14.1016 19.7192 14.1016 19.7075C14.1016 19.6919 14.0586 19.6177 14.0039 19.5396C13.8633 19.3364 13.75 18.9419 13.75 18.6685V18.438L8.63672 18.4302L3.52344 18.4185L3.42188 18.3247C3.28516 18.1958 3.28516 18.0005 3.41797 17.8716L3.51172 17.7739H8.67188C11.5078 17.7739 13.8281 17.77 13.8281 17.7622C13.8281 17.7583 13.8555 17.5083 13.8867 17.2075C13.918 16.9067 13.9453 16.6138 13.9453 16.5513V16.4458L7.6875 16.4497C2.84375 16.4536 1.38281 16.4653 1.23047 16.5005Z" fill="#232735"/>
</g>
<defs>
<clipPath id="clip0_5608_21198">
<rect width="20" height="20" fill="white"/>
</clipPath>
</defs>
</svg>
