<svg width="24" height="24" viewBox="0 0 24 24" fill="none" xmlns="http://www.w3.org/2000/svg">
<path d="M6.51564 5.02031C0.740637 7.22344 0.984387 7.11094 0.984387 7.49531C0.984387 7.82812 1.11095 7.9125 2.10939 8.29687L3.00001 8.63906V12.8391V17.0391L2.78907 17.1516C2.52657 17.2922 2.22657 17.6109 2.09532 17.8969C1.99689 18.1078 1.9922 18.1828 1.9922 19.4156V20.7141L2.12814 20.8547L2.26876 21H3.4922C4.82345 21 4.85626 20.9953 4.96407 20.7281C5.00626 20.6297 5.01564 20.2359 5.00626 19.3312C4.9922 18.1219 4.98751 18.0609 4.88439 17.85C4.74845 17.5781 4.4672 17.2828 4.21876 17.1562L4.03126 17.0625V13.0547C4.03126 10.8516 4.04064 9.04687 4.0547 9.04687C4.06876 9.04687 5.82189 9.7125 7.9547 10.5234C10.5094 11.4984 11.8875 12 12.0047 12C12.1172 12 13.95 11.325 17.4656 9.98437C23.2734 7.77656 23.0156 7.88906 23.0156 7.5C23.0156 7.11094 23.2734 7.22344 17.4656 5.01562C13.4438 3.48281 12.1313 3 11.9813 3.00469C11.8453 3.00469 10.2188 3.60469 6.51564 5.02031Z" fill="white"/>
<path d="M4.96875 13.2852V16.1586L5.07656 16.3133C5.175 16.4586 5.39531 16.5523 8.53125 17.7477C10.3734 18.4508 11.9344 19.0273 12 19.0273C12.0656 19.0273 13.6266 18.4508 15.4688 17.7477C18.6141 16.5477 18.825 16.4586 18.9281 16.3133L19.0313 16.1586V13.2758C19.0313 10.5523 19.0266 10.3977 18.9516 10.4305C18.9047 10.4445 17.4 11.0211 15.6094 11.7055C12.3891 12.9383 12.3469 12.9523 12 12.9523C11.6531 12.9523 11.6016 12.9336 8.325 11.6773C6.49688 10.9789 4.99219 10.407 4.98281 10.407C4.97344 10.407 4.96875 11.7008 4.96875 13.2852Z" fill="white"/>
</svg>
