<svg width="24" height="24" viewBox="0 0 24 24" fill="none" xmlns="http://www.w3.org/2000/svg">
<path d="M5.29692 0.844415C3.92817 1.19598 2.84535 2.33504 2.55942 3.71785C2.49379 4.03192 2.48442 4.88973 2.48442 11.2038C2.48442 18.9616 2.47504 18.6663 2.74223 19.3272C3.21567 20.485 4.34067 21.4038 5.53598 21.61C5.73754 21.6429 6.74067 21.6569 8.57348 21.6475L11.311 21.6335L11.3719 21.3335C11.7047 19.7163 12.8719 18.1975 14.3672 17.4522C14.5969 17.335 14.7985 17.2319 14.8079 17.2225C14.8219 17.2085 14.7797 17.1663 14.7141 17.1241C14.1188 16.7069 13.561 15.8819 13.35 15.0991C13.2235 14.621 13.2141 13.8007 13.3313 13.3366C13.6594 12.071 14.5594 11.1007 15.7969 10.6835C16.9266 10.3038 18.1922 10.5335 19.186 11.2929L19.5 11.5366V7.83348C19.5 3.83973 19.4954 3.78817 19.2469 3.12254C18.8297 2.0116 17.8454 1.1491 16.6688 0.844415C16.3079 0.750665 16.1672 0.750665 10.9735 0.755353C5.87817 0.755353 5.63442 0.76004 5.29692 0.844415ZM15.2625 4.57567C15.4922 4.68348 15.6235 4.89442 15.6469 5.17567C15.6657 5.44285 15.5625 5.6491 15.3141 5.83192C15.1829 5.93035 15.1547 5.93035 11.0954 5.94442C8.28285 5.95379 6.9516 5.94442 6.83442 5.90692C6.34223 5.76629 6.15004 5.17098 6.46879 4.77254C6.6891 4.49129 6.48285 4.50067 10.9829 4.50067C14.6907 4.50067 15.1172 4.51004 15.2625 4.57567ZM15.2813 8.58348C15.5297 8.7241 15.675 8.99598 15.6469 9.27723C15.6188 9.55379 15.5016 9.72254 15.2532 9.84442C15.0704 9.93817 14.9813 9.93817 10.9735 9.93817H6.88129L6.69379 9.83504C6.19223 9.5491 6.18285 8.8741 6.68442 8.59285L6.86723 8.48504H10.9875C15.0938 8.48504 15.1032 8.48504 15.2813 8.58348ZM10.9735 12.5772C11.4516 12.9007 11.4657 13.4538 11.0016 13.8007C10.8704 13.8944 10.8094 13.8991 8.9391 13.9132C7.65004 13.9225 6.9516 13.9132 6.83442 13.8757C6.34223 13.735 6.15004 13.1397 6.46879 12.7413C6.67504 12.4741 6.69379 12.4694 8.84067 12.4694H10.8141L10.9735 12.5772Z" fill="white"/>
<path d="M16.3829 11.6252C15.1735 11.8689 14.3251 12.9283 14.3251 14.2033C14.3251 14.9252 14.5782 15.5299 15.0938 16.0408C16.111 17.0393 17.7516 17.0393 18.7454 16.0361C19.2704 15.5111 19.5141 14.9158 19.5141 14.1799C19.5141 12.9518 18.7126 11.9299 17.5266 11.6486C17.2079 11.5736 16.6923 11.5643 16.3829 11.6252Z" fill="white"/>
<path d="M15.9844 17.9953C14.8031 18.2484 13.7672 18.9516 13.0922 19.9594C12.6375 20.6437 12.3937 21.3703 12.3422 22.2C12.3187 22.6406 12.3234 22.6875 12.4265 22.8703C12.4875 22.9781 12.6 23.1094 12.6844 23.1562C12.825 23.2453 12.9469 23.25 16.9219 23.25C20.9953 23.25 21.014 23.25 21.1734 23.1516C21.2578 23.0953 21.375 22.9641 21.4312 22.8609C21.5203 22.6875 21.525 22.6125 21.5015 22.1719C21.4172 20.625 20.5125 19.2141 19.1109 18.4453C18.2297 17.9578 16.9922 17.7844 15.9844 17.9953Z" fill="white"/>
</svg>
