<svg width="24" height="24" viewBox="0 0 24 24" fill="none" xmlns="http://www.w3.org/2000/svg">
<g clip-path="url(#clip0_5652_49931)">
<path d="M10.8797 0.0746105C8.31096 0.50586 6.16409 2.67149 5.74221 5.24961C5.65315 5.82149 5.65315 6.83399 5.74221 7.40586C6.16877 10.0355 8.34377 12.1824 10.9922 12.5949L11.4985 12.6699L11.2594 12.7309C10.3219 12.9746 9.50627 13.7949 9.25784 14.7512C9.16877 15.0934 9.16877 15.8434 9.25784 16.1855C9.51096 17.1559 10.3125 17.9574 11.2828 18.2105C11.625 18.2996 12.375 18.2996 12.7172 18.2105C13.6875 17.9574 14.4891 17.1559 14.7422 16.1855C14.8313 15.8434 14.8313 15.0934 14.7422 14.7512C14.4938 13.7996 13.725 13.0121 12.7781 12.7496L12.5016 12.6699L13.0078 12.5949C15.6563 12.1824 17.8313 10.0355 18.2578 7.40586C18.3469 6.83399 18.3469 5.82149 18.2578 5.24961C17.836 2.64805 15.6797 0.491798 13.0781 0.069923C12.5297 -0.0191395 11.4188 -0.014452 10.8797 0.0746105ZM14.6016 4.45274L15.0703 4.92149L13.1813 6.81055L11.2969 8.69492L10.1156 7.50899L8.92971 6.32774L9.41252 5.84961L9.89065 5.3668L10.5938 6.06992L11.2969 6.77305L12.6938 5.37617C13.4578 4.61211 14.0953 3.98399 14.1094 3.98399C14.1235 3.98399 14.3438 4.19492 14.6016 4.45274Z" fill="white"/>
<path d="M4.23286 12.7266C3.27661 12.9844 2.47505 13.7953 2.22661 14.7516C2.13755 15.0937 2.13755 15.8437 2.22661 16.1859C2.42817 16.9641 2.99067 17.6531 3.70317 18C3.92349 18.1031 4.18599 18.2062 4.28911 18.225C4.39224 18.2437 3.82974 18.2672 3.00005 18.2812L1.52349 18.3047L1.19536 18.4641C0.764111 18.675 0.393799 19.0453 0.182861 19.4766L0.0234863 19.8047L0.00942383 21.9L-0.00463867 24H2.83599H5.67192V22.275C5.67192 21.3281 5.69536 20.3625 5.71411 20.1328C5.77036 19.5844 5.9438 19.0453 6.2063 18.6187L6.41724 18.2812L5.93911 18.2766H5.46099L5.70474 18.2109C6.66099 17.9531 7.46255 17.1422 7.71099 16.1859C7.80005 15.8437 7.80005 15.0937 7.71099 14.7516C7.45786 13.7766 6.66099 12.9844 5.68599 12.7312C5.33442 12.6375 4.56567 12.6375 4.23286 12.7266Z" fill="white"/>
<path d="M18.2953 12.7266C17.3391 12.9844 16.5375 13.7953 16.2891 14.7516C16.2 15.0937 16.2 15.8437 16.2891 16.1859C16.5375 17.1422 17.3391 17.9531 18.2953 18.2109L18.5391 18.2766H18.061L17.5828 18.2812L17.7844 18.6094C18.0469 19.0312 18.2344 19.6031 18.286 20.1328C18.3094 20.3625 18.3281 21.3281 18.3281 22.275V24H21.1641H24.0047L23.9906 21.9L23.9766 19.8047L23.8172 19.4766C23.6063 19.0453 23.236 18.675 22.8047 18.4641L22.4766 18.3047L21 18.2906C19.6406 18.2719 19.5422 18.2672 19.7672 18.2062C20.7188 17.9578 21.525 17.1469 21.7735 16.1859C21.8625 15.8437 21.8625 15.0937 21.7735 14.7516C21.5203 13.7766 20.7235 12.9844 19.7485 12.7312C19.3969 12.6375 18.6281 12.6375 18.2953 12.7266Z" fill="white"/>
<path d="M8.48911 18.375C7.93599 18.5766 7.5188 18.9516 7.25161 19.4953L7.10161 19.8047L7.08755 21.9L7.07349 24H12H16.9266L16.9125 21.9L16.8985 19.8047L16.7391 19.4766C16.5282 19.0453 16.1579 18.675 15.7266 18.4641L15.3985 18.3047L14.0532 18.2906L12.7032 18.2766V20.3859V22.5H12H11.2969V20.3906V18.2813H10.0219C8.87817 18.2859 8.71411 18.2953 8.48911 18.375Z" fill="white"/>
</g>
<defs>
<clipPath id="clip0_5652_49931">
<rect width="24" height="24" fill="white"/>
</clipPath>
</defs>
</svg>
