<svg width="24" height="24" viewBox="0 0 24 24" fill="none" xmlns="http://www.w3.org/2000/svg">
<path d="M9.89097 4.33569C8.63941 4.87944 7.87535 5.23101 7.83785 5.29194C7.76285 5.39976 7.80035 5.55913 7.91285 5.62007C7.95504 5.64351 8.43785 5.79351 8.97691 5.95288C9.52066 6.11694 9.98941 6.26694 10.0222 6.29507C10.055 6.31851 10.0785 6.44507 10.0785 6.59507C10.0785 6.82007 10.0878 6.85288 10.1628 6.82944C10.205 6.81069 10.3597 6.75913 10.505 6.70757C10.8894 6.56694 11.2972 6.51538 11.9769 6.51538C12.7925 6.51538 13.3128 6.60913 13.8847 6.86226C13.955 6.89507 13.9644 6.86226 13.9785 6.60444L13.9925 6.31382L14.2972 6.21069C14.8878 6.01382 14.8597 6.00913 14.8597 6.28101C14.8597 6.48257 14.8316 6.55757 14.6957 6.73569L14.5316 6.95132V7.54194C14.5316 7.86538 14.555 8.16538 14.5785 8.20288C14.6113 8.25444 14.7378 8.27788 15.0894 8.28726C15.741 8.31069 15.7503 8.29663 15.7503 7.54194V6.97944L15.516 6.72632L15.2769 6.47788L15.291 6.15913L15.305 5.84038L15.6144 5.74194C16.0082 5.62476 16.0878 5.55913 16.0691 5.37163C16.055 5.22632 16.041 5.22163 14.0394 4.34976C12.9332 3.87163 11.991 3.47788 11.9535 3.47788C11.916 3.47788 10.9878 3.86226 9.89097 4.33569Z" fill="#232735" fill-opacity="0.25"/>
<path d="M10.8839 7.0082C10.4948 7.09258 10.1995 7.23789 10.1339 7.37852C10.0308 7.60352 9.96985 8.07227 9.99328 8.45195C10.0542 9.3707 10.5558 10.1957 11.2823 10.5566C11.5308 10.6785 11.6245 10.6973 11.9292 10.6973C12.2339 10.6973 12.3277 10.6785 12.5855 10.552C13.5605 10.0691 14.0855 8.78945 13.7995 7.59414C13.7245 7.28477 13.7152 7.2707 13.5042 7.17695C13.387 7.1207 13.1433 7.0457 12.9605 7.0082C12.5386 6.91914 11.2917 6.91914 10.8839 7.0082Z" fill="#232735"/>
<path d="M2.97674 7.92187C1.91737 8.37656 1.00799 8.78906 0.947052 8.83125C0.872052 8.8875 0.843927 8.95312 0.853302 9.0375C0.867365 9.17344 0.95174 9.22969 1.37362 9.37969L1.6408 9.47344V9.83437C1.6408 10.1859 1.63612 10.1953 1.46268 10.3734L1.28924 10.5516L1.27518 11.0766C1.2658 11.3719 1.27986 11.6578 1.30799 11.7281L1.35955 11.8594H1.8658C2.19862 11.8594 2.3908 11.8406 2.4283 11.8031C2.4658 11.7656 2.48455 11.5547 2.48455 11.1516V10.5609L2.29705 10.3219C2.13299 10.1203 2.10955 10.0594 2.10955 9.84844C2.10955 9.71719 2.1283 9.60938 2.14705 9.60938C2.1658 9.60938 2.36268 9.67031 2.5783 9.74062L2.97674 9.87656L3.00487 10.1437C3.02362 10.2891 3.04705 10.4203 3.06112 10.4344C3.07518 10.4484 3.13612 10.4297 3.19705 10.3875C3.2533 10.35 3.47362 10.2703 3.67987 10.2094C4.01737 10.1109 4.14862 10.1016 5.0158 10.1062C5.91112 10.1062 6.00018 10.1156 6.35174 10.2281C6.55799 10.2937 6.75955 10.3594 6.80174 10.3781C6.86268 10.4062 6.88612 10.3594 6.91893 10.1203L6.96112 9.82969L8.01112 9.52031C9.12674 9.1875 9.22987 9.13125 9.16893 8.89219C9.14549 8.79375 8.86424 8.66719 7.09237 7.92656C5.96268 7.45781 5.00643 7.07812 4.96893 7.08281C4.93143 7.0875 4.03612 7.4625 2.97674 7.92187Z" fill="#232735" fill-opacity="0.25"/>
<path d="M16.9925 7.89844C15.9612 8.34375 15.0612 8.74219 14.9909 8.78437C14.8409 8.86406 14.8081 9.08906 14.93 9.1875C14.9675 9.22031 15.469 9.38906 16.0456 9.55781L17.0862 9.86719L17.1143 10.1391C17.1331 10.2891 17.1565 10.4203 17.1706 10.4344C17.1846 10.4484 17.2596 10.425 17.3393 10.3875C17.7565 10.1719 18.7596 10.05 19.5378 10.125C20.1706 10.1859 20.6112 10.2984 20.9581 10.4859C20.9768 10.4953 21.005 10.3687 21.019 10.2047L21.0518 9.90937L21.4409 9.78281C21.6518 9.7125 21.8393 9.65625 21.8581 9.65625C21.8768 9.65625 21.8909 9.76875 21.8909 9.90469C21.8909 10.1344 21.8768 10.1672 21.68 10.3594L21.469 10.5656V11.1562C21.469 11.5547 21.4878 11.7656 21.5253 11.8031C21.5628 11.8406 21.755 11.8594 22.0878 11.8594C22.5378 11.8594 22.594 11.85 22.6409 11.7703C22.6643 11.7188 22.6878 11.4281 22.6878 11.1281V10.575L22.5003 10.3547C22.3175 10.1391 22.3128 10.1203 22.3128 9.78281V9.43594L22.6268 9.35156C22.9737 9.25781 23.1096 9.15 23.1096 8.97656C23.1096 8.89687 23.0675 8.84062 22.9643 8.78906C22.6315 8.61562 19.0034 7.07812 18.9378 7.08281C18.9003 7.08281 18.0237 7.45312 16.9925 7.89844Z" fill="#232735" fill-opacity="0.25"/>
<path d="M4.32656 10.5469C3.92344 10.5891 3.37969 10.7484 3.23906 10.8609C3.09844 10.9781 3 11.3859 3 11.8828C3 12.6562 3.23438 13.2328 3.76406 13.7578C4.16719 14.1609 4.46719 14.2969 4.94531 14.2969C5.38594 14.2969 5.70938 14.1609 6.075 13.8187C6.60938 13.3172 6.89063 12.6609 6.89063 11.9062C6.89063 11.4 6.7875 10.9828 6.62813 10.8422C6.3375 10.5797 5.2875 10.4484 4.32656 10.5469Z" fill="#232735"/>
<path d="M18.3288 10.5516C17.4804 10.6547 17.2413 10.8094 17.1335 11.3203C17.0023 11.9438 17.082 12.525 17.3726 13.1156C17.5741 13.5281 18.0101 13.9922 18.3523 14.1609C18.5491 14.2547 18.657 14.2734 19.0085 14.2734C19.3788 14.2734 19.4632 14.2547 19.7023 14.1375C20.2226 13.8844 20.6866 13.275 20.8835 12.5859C20.996 12.2109 20.996 11.55 20.8835 11.1656C20.7851 10.8234 20.7288 10.7813 20.1804 10.6406C19.7632 10.5328 18.8257 10.4859 18.3288 10.5516Z" fill="#232735"/>
<path d="M9.63281 10.6922C9.29531 10.7719 8.2875 11.1141 8.17031 11.1891C8.03906 11.2781 7.84688 11.5922 7.80938 11.7891C7.78594 11.9156 7.65938 13.2234 7.63125 13.6594L7.61719 13.8422L7.90781 13.9266C9.37031 14.3391 9.68906 14.7141 9.77344 16.125C9.7875 16.3969 9.81094 16.6875 9.825 16.7672L9.84844 16.9219H11.9953H14.1469L14.175 16.7766C14.1891 16.6969 14.2031 16.4906 14.2031 16.3172C14.2078 15.5484 14.4563 14.8219 14.8219 14.5078C15.0141 14.3484 15.4594 14.1516 16.0875 13.95C16.3219 13.8797 16.4016 13.8328 16.3875 13.7812C16.3734 13.7437 16.35 13.4344 16.3359 13.1016C16.2656 11.8031 16.1344 11.4422 15.6422 11.2078C15.0563 10.9312 14.0672 10.6875 13.8047 10.7531C13.6078 10.8047 13.5797 10.9312 13.6688 11.3344C13.7766 11.7891 13.7766 12.3609 13.6688 12.7266C13.5656 13.0828 13.2797 13.6125 12.9984 13.9828L12.7734 14.2687L12.7453 14.0859C12.7266 13.9828 12.6984 13.6406 12.6797 13.3219C12.6469 12.7687 12.6516 12.75 12.7453 12.75C12.9234 12.75 12.9844 12.5812 12.9844 12.0703C12.9844 11.3625 13.0266 11.3906 12 11.3906C10.9781 11.3906 11.0156 11.3672 11.0156 12.0328C11.0156 12.4078 11.0297 12.4828 11.1094 12.5625C11.1609 12.6141 11.2453 12.6562 11.2969 12.6562C11.3906 12.6562 11.3953 12.675 11.3625 13.1344C11.3484 13.4016 11.3203 13.7437 11.3016 13.8984L11.2734 14.1797L11.0484 13.8844C10.7484 13.5 10.4297 12.8906 10.3406 12.5344C10.2422 12.1453 10.2469 11.6672 10.3594 11.2312C10.4531 10.8516 10.4484 10.7578 10.3078 10.6875C10.2047 10.6312 9.88594 10.6359 9.63281 10.6922Z" fill="#232735"/>
<path d="M2.55503 14.2969C2.2316 14.3625 1.25191 14.7094 1.13003 14.8031C0.942534 14.9391 0.806596 15.1688 0.755034 15.4359C0.726909 15.5719 0.623784 16.725 0.520659 18C0.351909 20.0672 0.342534 20.3297 0.403471 20.4234L0.469096 20.5312H4.93628C8.67691 20.5312 9.41753 20.5219 9.49253 20.4656C9.60503 20.3859 9.60503 20.4375 9.42222 17.775C9.27222 15.5156 9.23941 15.3563 8.88316 14.9672C8.72847 14.7984 8.61128 14.7328 8.25035 14.5969C7.41128 14.2875 6.79722 14.1984 6.61441 14.3625C6.49722 14.4703 6.49253 14.5359 6.58628 14.8922C6.67535 15.2391 6.67535 15.8438 6.58628 16.1953C6.5441 16.35 6.43628 16.6219 6.34722 16.8047C6.16441 17.1797 5.72847 17.7891 5.6816 17.7422C5.66285 17.7281 5.63003 17.3859 5.60191 16.9875L5.55503 16.2656H5.67691C5.74253 16.2656 5.81753 16.2422 5.85035 16.2094C5.92535 16.1344 5.92535 15.1781 5.85035 15.1031C5.77066 15.0234 4.12066 15.0234 4.04097 15.1031C3.96597 15.1781 3.96597 16.0875 4.04097 16.1625C4.07378 16.1953 4.14878 16.2188 4.2191 16.2188H4.33628L4.28941 16.9406C4.26597 17.3391 4.22847 17.6766 4.20972 17.6953C4.15347 17.7516 3.75035 17.1891 3.53472 16.7578C3.18785 16.0594 3.11753 15.4453 3.30972 14.8172C3.3941 14.5313 3.3941 14.4188 3.29097 14.3297C3.19722 14.2453 2.88785 14.2313 2.55503 14.2969Z" fill="#232735"/>
<path d="M16.6647 14.2969C16.3413 14.3625 15.3616 14.7094 15.2397 14.8031C15.0569 14.9344 14.921 15.1641 14.8694 15.4125C14.8413 15.5344 14.7522 16.6828 14.6679 17.9625C14.5413 19.875 14.5272 20.3062 14.5788 20.3625C14.6304 20.4281 15.1225 20.4375 19.1304 20.4375C23.1475 20.4375 23.6257 20.4281 23.6913 20.3625C23.7335 20.325 23.7663 20.25 23.7663 20.1984C23.7663 20.1516 23.6725 19.1016 23.5554 17.8687C23.3397 15.5484 23.2975 15.3047 23.0772 15.0094C22.9366 14.8266 22.7632 14.7328 22.1257 14.5172C21.3288 14.2453 20.771 14.2078 20.6866 14.4187C20.6725 14.4609 20.6913 14.6766 20.7382 14.9016C20.9257 15.8766 20.7335 16.5937 20.0491 17.5078L19.8054 17.8359L19.7538 17.2969C19.721 17.0016 19.6975 16.6453 19.6929 16.5094C19.6882 16.2844 19.6975 16.2656 19.796 16.2656C19.8569 16.2656 19.9272 16.2422 19.96 16.2094C20.035 16.1344 20.035 15.1781 19.96 15.1031C19.8804 15.0234 18.2304 15.0234 18.1507 15.1031C18.0757 15.1781 18.0757 16.0875 18.1507 16.1625C18.1835 16.1953 18.2585 16.2188 18.3288 16.2188H18.446L18.3991 16.9406C18.3757 17.3391 18.3382 17.6766 18.3241 17.6953C18.2772 17.7422 17.9725 17.3484 17.7382 16.9359C17.3538 16.2609 17.2319 15.6516 17.3679 15.0469C17.5038 14.4562 17.5038 14.4422 17.4147 14.3437C17.321 14.2406 17.0257 14.2266 16.6647 14.2969Z" fill="#232735"/>
</svg>
