<svg width="24" height="24" viewBox="0 0 24 24" fill="none" xmlns="http://www.w3.org/2000/svg">
<g clip-path="url(#clip0_5652_49926)">
<path d="M3.23439 0.0750014C3.09376 0.112501 2.8172 0.220314 2.62501 0.314064C2.13751 0.548439 1.54689 1.14375 1.30314 1.64063C0.960952 2.33438 0.979702 1.7625 0.993764 10.2563L1.00783 17.8875L1.19064 18.2578C1.52814 18.9375 2.30626 19.6031 3.09376 19.8844C3.38908 19.9875 3.4547 19.9922 5.19376 20.0063L6.98439 20.0203V21.7359C6.98439 23.2172 6.99376 23.4703 7.05939 23.6063C7.17658 23.85 7.37814 23.9719 7.71095 23.9906C8.0672 24.0141 8.08595 24 9.16876 23.0344C9.70783 22.5516 10.0031 22.3172 10.0406 22.3406C10.0735 22.3641 10.4813 22.7203 10.95 23.1375C11.4141 23.5547 11.8406 23.9203 11.8969 23.9484C11.9485 23.9766 12.1078 24 12.2485 24C12.5297 24 12.736 23.8922 12.9094 23.6578C13.0031 23.5313 13.0078 23.4656 13.0219 21.7734L13.036 20.0156L15.6985 20.0063L18.3656 19.9922L18.5719 19.8516C18.6797 19.7719 18.825 19.6125 18.8906 19.5L19.0078 19.2891L19.0219 15.3563C19.0313 11.6109 19.0313 11.4281 18.9516 11.4516C18.4922 11.6063 17.6156 11.8219 17.2172 11.8828C16.5703 11.9813 15.4453 11.9813 14.7938 11.8828C13.8188 11.7375 12.9563 11.4656 11.9672 10.9922C10.7766 10.4203 10.1719 9.97969 9.72189 9.34688C9.23908 8.67188 9.06095 8.05781 9.01876 6.9375L8.98595 6.15L8.58283 5.94844C7.43439 5.38125 6.80158 4.06875 7.10158 2.88281C7.20001 2.49844 7.45783 1.99219 7.6922 1.72031C8.02033 1.34063 8.40001 1.11563 9.65626 0.562501C10.3125 0.276564 10.861 0.0281264 10.8703 0.0187514C10.8797 0.00937643 9.22501 1.43051e-06 7.19064 0.00468893C4.12501 0.00468893 3.45001 0.0187514 3.23439 0.0750014ZM6.98439 17.0203V18.0047L5.38126 17.9906C3.83908 17.9766 3.76408 17.9719 3.58595 17.8734C3.19689 17.6672 3.02814 17.3672 3.05626 16.9406C3.0797 16.575 3.24845 16.3031 3.55783 16.1391C3.76408 16.0313 3.77814 16.0313 5.37658 16.0313H6.98439V17.0203ZM16.9688 17.0156V18H15H13.0313V17.0156V16.0313H15H16.9688V17.0156Z" fill="white"/>
<path d="M12.5626 1.40694C10.8235 2.17569 9.35162 2.84131 9.29068 2.8835C8.90162 3.16944 8.90631 3.89131 9.29537 4.13038C9.37506 4.17725 10.861 4.84288 12.6047 5.61163C15.3985 6.83975 15.8016 7.0085 16.0079 7.00381C16.2094 7.00381 16.6594 6.821 19.4485 5.58819C21.2157 4.81006 22.7063 4.12569 22.7719 4.06944C23.1188 3.74131 23.0954 3.16944 22.7297 2.89756C22.6407 2.83194 21.1454 2.15694 19.4016 1.39288C16.4719 0.103814 16.2141 0.00068897 15.9797 0.00537647C15.7547 0.010064 15.3797 0.164751 12.5626 1.40694Z" fill="white"/>
<path d="M10.9781 7.05078C10.9969 7.60859 11.0015 7.64609 11.1703 7.98828C11.2922 8.23203 11.414 8.40078 11.5594 8.51797C12.0047 8.89297 13.1953 9.47422 14.0297 9.72266C14.7609 9.94297 15.2015 10.0039 16.0312 10.0039C17.2453 9.99922 18.0562 9.79297 19.3359 9.16484C20.1422 8.77109 20.4469 8.56484 20.6859 8.23672C20.9343 7.89922 21.0047 7.61328 20.9906 6.99922L20.9765 6.48828L20.0859 6.88203C17.0531 8.21797 16.6359 8.39141 16.3125 8.44766C15.75 8.54609 15.525 8.47109 13.2187 7.45391C12.0984 6.95703 11.1281 6.53516 11.0672 6.51172L10.9594 6.46953L10.9781 7.05078Z" fill="white"/>
</g>
<defs>
<clipPath id="clip0_5652_49926">
<rect width="24" height="24" fill="white"/>
</clipPath>
</defs>
</svg>
